<?xml version="1.0" encoding="UTF-8"?>
<svg width="205px" height="80px" viewBox="0 0 205 80" version="1.1" xmlns="http://www.w3.org/2000/svg" xmlns:xlink="http://www.w3.org/1999/xlink">
    <!-- Generator: sketchtool 61.2 (101010) - https://sketch.com -->
    <title>B542976C-2A22-421C-833D-A14B8E3FA442</title>
    <desc>Created with sketchtool.</desc>
    <g id="Page-1" stroke="none" stroke-width="1" fill="none" fill-rule="evenodd">
        <g id="Home" transform="translate(-107.000000, -296.000000)" fill="#EC1230">
            <path d="M159.199082,296 L159.199,318.665 L174.68663,318.665947 L172.592078,328.189757 L159.199,328.189 L159.199,343.81 L169.244453,343.810243 L167.149902,353.334053 L159.199,353.334 L159.199082,366.47619 L149.675272,366.47619 L149.675,353.334 L131.987,353.334 L131.976214,376 L122.487548,376 L122.498,353.334 L107,353.334053 L109.094551,343.810243 L122.503,343.81 L122.511,328.189 L112.442177,328.189757 L114.536728,318.665947 L122.515,318.665 L122.522691,305.52381 L132.011358,305.52381 L132.004,318.665 L149.675,318.665 L149.675272,296 L159.199082,296 Z M236.899783,318.476191 L242.831756,353.52381 L222.368184,353.52381 L225.517923,347.863124 L234.719245,347.862191 L231.675293,325.333333 L216.001823,353.52381 L208.056245,353.52381 L228.845361,318.476191 L236.899783,318.476191 Z M213.226313,318.476191 L197.552844,332.680272 L206.478014,353.52381 L198.641279,353.52381 L192.001823,337.360544 L186.233116,342.421769 L183.89298,353.52381 L176.546041,353.52381 L179.12091,341.331049 L188.137878,333.333334 L204.790939,318.476191 L213.226313,318.476191 Z M288.608357,318.476191 L285.505058,333.169191 L300.722058,333.169191 L303.825322,318.476191 L311.17226,318.476191 L303.7709,353.52381 L296.423961,353.52381 L299.526058,338.830191 L284.309058,338.830191 L281.206997,353.52381 L273.860058,353.52381 L281.261419,318.476191 L288.608357,318.476191 Z M276.579395,318.55046 L275.388157,324.190476 L265.41679,324.190476 C262.913376,324.190476 260.999563,324.462585 259.675293,325.006803 C258.351023,325.551021 257.543775,326.548746 257.253524,328 C257.180962,328.435376 257.144681,328.743763 257.144681,328.92517 C257.144681,329.578235 257.362366,330.131517 257.797742,330.585034 C258.233118,331.038551 258.931524,331.44671 259.89298,331.809524 C260.854436,332.172338 262.260318,332.607707 264.110667,333.115646 C267.303427,333.986395 269.561908,335.092964 270.886178,336.435374 C272.210447,337.777785 272.872572,339.410421 272.872572,341.333334 C272.872572,342.058961 272.78187,342.9297 272.600463,343.945578 C271.911117,347.247182 270.323832,349.759629 267.838558,351.482993 C265.353285,353.206358 261.467019,353.52381 256.206222,353.52381 L253.174098,353.523329 C250.098883,353.522305 247.532628,353.51964 245.475332,353.515337 L244.597696,347.863124 C250.771514,348.07316 254.695701,347.863124 256.785405,347.863124 C259.506507,347.863124 261.561908,347.60998 262.777334,347.102041 C263.99276,346.594102 264.763727,345.541958 265.090259,343.945578 C265.162822,343.691609 265.199103,343.328801 265.199103,342.857143 C265.199103,342.095235 264.963277,341.46939 264.49162,340.979592 C264.019962,340.489794 263.267135,340.045354 262.233116,339.646259 C261.199097,339.247164 259.666233,338.739232 257.634477,338.122449 C254.768249,337.287978 252.700243,336.281185 251.430395,335.102041 C250.160547,333.922897 249.525633,332.408173 249.525633,330.557823 C249.525633,329.614508 249.616335,328.761909 249.797742,328 C250.487088,324.698396 252.119725,322.19502 254.695701,320.489796 C257.193618,318.836246 259.52091,318.566 264.059569,318.55114 L276.579395,318.55046 Z M140.843315,325.45544 C135.019715,325.45544 130.298755,330.1764 130.298755,336 C130.298755,341.8236 135.019715,346.54456 140.843315,346.54456 C146.666915,346.54456 151.387875,341.8236 151.387875,336 C151.387875,330.1764 146.666915,325.45544 140.843315,325.45544 Z M144.572268,329.64532 C144.65665,329.64532 144.725698,329.672478 144.780044,329.72654 C144.833948,329.780729 144.86098,329.849871 144.86098,329.934158 L144.86098,329.934158 L144.86098,330.855049 C144.86098,330.939272 144.833917,331.008541 144.780044,331.062667 C144.725761,331.116697 144.656713,331.14376 144.572332,331.14376 L144.572332,331.14376 L142.46928,331.14376 C142.75208,331.510814 142.944648,331.944228 143.047019,332.443529 L143.047019,332.443529 L144.590479,332.443529 C144.674639,332.443529 144.743876,332.47056 144.79797,332.524717 C144.852191,332.578906 144.879316,332.648049 144.879316,332.73243 L144.879316,332.73243 L144.879316,333.6531 C144.879316,333.737323 144.852191,333.806561 144.79797,333.860591 C144.743908,333.91478 144.674639,333.941779 144.590479,333.941779 L144.590479,333.941779 L143.07405,333.941779 C142.935543,334.808292 142.547465,335.512492 141.909658,336.054031 C141.271755,336.595506 140.441316,336.92655 139.418307,337.046878 C140.423263,338.117974 141.80441,339.730671 143.561337,341.885034 C143.645845,341.981334 143.657637,342.083642 143.597473,342.191956 C143.549481,342.300491 143.46216,342.35449 143.335667,342.35449 L143.335667,342.35449 L141.575579,342.35449 C141.479278,342.35449 141.404097,342.318449 141.349877,342.246176 C139.508506,340.03753 138.010066,338.319648 136.854747,337.092088 C136.80059,337.037994 136.773559,336.971823 136.773559,336.893481 L136.773559,336.893481 L136.773559,335.747014 C136.773559,335.668861 136.802107,335.601141 136.8593,335.543949 C136.91646,335.48682 136.984148,335.458208 137.062365,335.458208 L137.062365,335.458208 L138.073328,335.458208 C138.867695,335.458208 139.506925,335.328807 139.99143,335.070004 C140.475903,334.811232 140.784342,334.4352 140.916747,333.941621 L140.916747,333.941621 L137.062365,333.941621 C136.978205,333.941621 136.908936,333.914653 136.854747,333.860433 C136.80059,333.806402 136.773559,333.737165 136.773559,333.652942 L136.773559,333.652942 L136.773559,332.732177 C136.773559,332.647891 136.800716,332.57878 136.854747,332.524559 C136.908841,332.470402 136.978078,332.443371 137.062365,332.443371 L137.062365,332.443371 L140.790191,332.443371 C140.447228,331.763325 139.640847,331.423429 138.371208,331.423429 L138.371208,331.423429 L137.062365,331.423429 C136.984148,331.423429 136.91646,331.394849 136.8593,331.337688 C136.802139,331.280528 136.773559,331.212839 136.773559,331.134623 L136.773559,331.134623 L136.773559,329.934126 C136.773559,329.84984 136.800716,329.780697 136.854747,329.726508 C136.908936,329.672478 136.978078,329.64532 137.062365,329.64532 L137.062365,329.64532 Z M191.29434,318.476191 L188.713411,330.624356 L179.693287,338.620673 L183.947402,318.476191 L191.29434,318.476191 Z" id="Combined-Shape" transform="translate(209.086130, 336.000000) rotate(-360.000000) translate(-209.086130, -336.000000) "></path>
        </g>
    </g>
</svg>