<?xml version="1.0" encoding="UTF-8"?>
<svg width="30px" height="31px" viewBox="0 0 30 31" version="1.1" xmlns="http://www.w3.org/2000/svg" xmlns:xlink="http://www.w3.org/1999/xlink">
    <!-- Generator: sketchtool 61.2 (101010) - https://sketch.com -->
    <title>27CC766C-7E39-44CB-9051-976A5933F058</title>
    <desc>Created with sketchtool.</desc>
    <g id="Page-1" stroke="none" stroke-width="1" fill="none" fill-rule="evenodd">
        <g id="Schemes" transform="translate(-1165.000000, -2899.000000)" fill="#FFFFFF" fill-rule="nonzero">
            <g id="Group-5" transform="translate(1134.000000, 2887.000000)">
                <path d="M55.6656829,24.141388 C58.8643065,25.7575226 61.0000029,29.0799713 61.0000029,32.8027344 C61.0000029,34.5481872 60.5351439,36.2455749 59.6518889,37.736969 L59.6518889,37.736969 L60.9576598,42.4576569 L56.2369719,41.151886 C54.7455778,42.035141 53.0481901,42.5 51.3027373,42.5 C47.5799742,42.5 44.2575255,40.3643036 42.6413909,37.16568 C49.7792998,37.0663452 55.5663481,31.2792969 55.6656829,24.141388 Z M42.455081,12.5 C48.7715331,12.5 53.9101592,17.6386261 53.9101592,23.9550781 C53.9101592,30.2715301 48.7715331,35.4101562 42.455081,35.4101562 C40.3965178,35.4101562 38.3921996,34.8622132 36.632556,33.8217163 L36.632556,33.8217163 L31.0421172,35.3678131 L32.5884429,29.7776032 C31.547946,28.0179596 31.0000029,26.0136413 31.0000029,23.9550781 C31.0000029,17.6386261 36.138629,12.5 42.455081,12.5 Z M43.3339873,28.3789062 L41.5761748,28.3789062 L41.5761748,30.1367187 L43.3339873,30.1367187 L43.3339873,28.3789062 Z M42.455081,17.7734375 C40.5164519,17.7734375 38.939456,19.3504333 38.939456,21.2890625 L38.939456,21.2890625 L40.6972685,21.2890625 C40.6972685,20.3197479 41.4857664,19.53125 42.455081,19.53125 C43.4243956,19.53125 44.2128935,20.3197479 44.2128935,21.2890625 C44.2128935,21.7882538 44.0096465,22.2489929 43.6406889,22.5865936 L43.6406889,22.5865936 L41.5761748,24.4762421 L41.5761748,26.6210937 L43.3339873,26.6210937 L43.3339873,25.2503204 L44.8274413,23.8834381 C45.5541411,23.2187653 45.970706,22.2730255 45.970706,21.2890625 C45.970706,19.3504333 44.3937102,17.7734375 42.455081,17.7734375 Z" id="Combined-Shape"></path>
            </g>
        </g>
    </g>
</svg>