<?xml version="1.0" encoding="UTF-8"?>
<svg width="12px" height="12px" viewBox="0 0 12 12" version="1.1" xmlns="http://www.w3.org/2000/svg" xmlns:xlink="http://www.w3.org/1999/xlink">
    <!-- Generator: sketchtool 61.2 (101010) - https://sketch.com -->
    <title>11C24B68-6262-40FF-9B10-BEB92F66A947</title>
    <desc>Created with sketchtool.</desc>
    <g id="Page-1" stroke="none" stroke-width="1" fill="none" fill-rule="evenodd">
        <g id="Schemes" transform="translate(-1314.000000, -3085.000000)" fill="#A3A7AB">
            <g id="Group-19" transform="translate(0.000000, 2957.000000)">
                <path d="M1320,128.5 C1323.03757,128.5 1325.5,130.962434 1325.5,134 C1325.5,137.037566 1323.03757,139.5 1320,139.5 C1316.96243,139.5 1314.5,137.037566 1314.5,134 C1314.5,130.962434 1316.96243,128.5 1320,128.5 Z M1319.64749,130.646411 C1319.6252,130.668691 1319.59223,130.701319 1319.55244,130.741457 L1317.64695,132.646948 C1317.45169,132.84221 1317.45169,133.158792 1317.64695,133.354055 C1317.84221,133.549317 1318.15879,133.549317 1318.35405,133.354055 L1319.5005,132.207608 L1319.5005,137.000501 C1319.5005,137.276644 1319.72436,137.500501 1320.0005,137.500501 C1320.27664,137.500501 1320.5005,137.276644 1320.5005,137.000501 L1320.5005,132.207608 L1321.64695,133.354055 C1321.84221,133.549317 1322.15879,133.549317 1322.35405,133.354055 C1322.54932,133.158792 1322.54932,132.84221 1322.35405,132.646948 L1320.37887,130.671761 C1320.3413,130.629067 1320.29677,130.593395 1320.2478,130.565793 C1320.21382,130.546438 1320.17806,130.531387 1320.1413,130.520638 C1319.97802,130.472117 1319.78996,130.504325 1319.64749,130.646411 Z" id="Icon" transform="translate(1320.000000, 134.000000) rotate(90.000000) translate(-1320.000000, -134.000000) "></path>
            </g>
        </g>
    </g>
</svg>