<?xml version="1.0" encoding="UTF-8"?>
<svg width="49px" height="56px" viewBox="0 0 49 56" version="1.1" xmlns="http://www.w3.org/2000/svg" xmlns:xlink="http://www.w3.org/1999/xlink">
    <!-- Generator: sketchtool 61.2 (101010) - https://sketch.com -->
    <title>C98A3D14-E082-49B9-AE24-9849C2242CB7</title>
    <desc>Created with sketchtool.</desc>
    <g id="Page-1" stroke="none" stroke-width="1" fill="none" fill-rule="evenodd">
        <g id="About-us" transform="translate(-431.000000, -4705.000000)" fill="#FFFFFF" fill-rule="nonzero">
            <g id="Group-4-Copy" transform="translate(105.000000, 3910.000000)">
                <g id="hands-and-gestures" transform="translate(326.000000, 795.500000)">
                    <path d="M1.64409358,36.798154 L8.79381182,36.9949474 C9.29173865,37.0085952 9.68400462,37.4233141 9.67035673,37.921241 L9.67035673,37.921241 L9.62897284,39.4242666 C13.0224476,37.6465227 17.0714598,37.6421201 20.4684565,39.4128201 L20.4684565,39.4128201 L21.1319185,39.7566581 C22.0498473,40.2308112 23.0628708,40.4923219 24.0952655,40.5218189 L24.0952655,40.5218189 L30.6154211,40.701002 C32.6740469,40.7591155 34.5446843,41.9134605 35.5198461,43.7273052 L35.5198461,43.7273052 L42.5828344,40.3901831 C44.7554857,39.2970334 47.4036111,40.1040182 48.5975788,42.2225184 C48.8322339,42.6381178 48.7027994,43.1642209 48.3021686,43.4235302 L48.3021686,43.4235302 L32.2201454,53.8258419 C32.1844849,53.8491755 32.1470634,53.8698673 32.1083211,53.8874774 C30.5317729,54.6112543 28.8174255,54.9850296 27.0828263,54.9841509 C26.2639547,54.9845894 25.446844,54.9005009 24.6451423,54.7327643 C24.6253308,54.7283619 24.6059596,54.7239593 24.5865885,54.718236 L24.5865885,54.718236 L13.4948397,51.6052029 C12.698421,51.379793 11.84609,51.4731268 11.1170301,51.8653928 L11.1170301,51.8653928 L9.25960017,52.8599256 L9.23890822,53.610558 C9.22570067,54.0987992 8.8259503,54.4875431 8.33726887,54.4875431 L8.33726887,54.4875431 L8.31261467,54.4875431 L1.16289644,54.2907497 C0.664969602,54.2771018 0.272703742,53.862383 0.286005925,53.3644562 L0.286005925,53.3644562 L0.718240258,37.6746989 C0.731888147,37.1767721 1.14616686,36.7845061 1.64409358,36.798154 L1.64409358,36.798154 Z M19.6394589,41.0140224 C16.4361738,39.345021 12.578672,39.5506194 9.57085948,41.5511317 L9.57085948,41.5511317 L9.31683308,50.7845702 L10.2660198,50.2760773 C11.4049559,49.6636846 12.7376035,49.5179606 13.9826406,49.8697233 L13.9826406,49.8697233 L25.0444522,52.9748318 C27.1497449,53.4049595 29.3373649,53.1610591 31.2960531,52.2770299 L31.2960531,52.2770299 L46.500651,42.4413245 C45.6553641,41.6589938 44.4129685,41.4850936 43.3854166,42.0050332 C43.3783725,42.0085552 43.3713285,42.0120773 43.3642844,42.0151591 L43.3642844,42.0151591 L36.1199117,45.4381306 C36.1890315,45.8237928 36.2180882,46.2160587 36.2070819,46.6078845 C36.1938743,47.0956853 35.7945643,47.4844293 35.3063231,47.4848696 L35.3063231,47.4848696 L35.2812286,47.4848696 L24.5628148,47.1898997 C24.0653282,47.1762518 23.672622,46.761533 23.6862699,46.2636061 C23.700358,45.7661196 24.1146366,45.3734133 24.6125634,45.3870612 L24.6125634,45.3870612 L34.3249978,45.6551756 C33.9534238,43.8607021 32.3980079,42.5566709 30.5665529,42.5038405 L30.5665529,42.5038405 L24.0459571,42.3246573 C22.7414856,42.2867955 21.462549,41.9566053 20.3029211,41.3578604 L20.3029211,41.3578604 Z M2.49598429,38.6256467 L2.11384418,52.5130058 L7.46072396,52.6604907 L7.84286407,38.7726913 L2.49598429,38.6256467 Z M25.0633831,12.0180407 C32.2844225,12.0180407 38.1380342,17.8716524 38.1380342,25.0926917 C38.1380342,32.3137309 32.2844225,38.1673426 25.0633831,38.1673426 C17.8423437,38.1673426 11.9887321,32.3137309 11.9887321,25.0926917 C11.9970969,17.8751744 17.8458658,12.0259652 25.0633831,12.0180407 Z M25.0633831,13.8213194 C18.8412792,13.8283635 13.7990548,18.8705878 13.7920107,25.0926917 C13.7920107,31.3178774 18.8381974,36.3640639 25.0633831,36.3640639 C31.2885688,36.3640639 36.3347555,31.3178774 36.3347555,25.0926917 C36.3347555,18.867506 31.2885688,13.8213194 25.0633831,13.8213194 Z M24.9506782,16.5834704 C25.448605,16.5834704 25.8523175,16.9871829 25.8523175,17.4851097 L25.8523175,17.4851097 L25.8523175,18.3057424 C27.6349043,18.681719 28.9111995,20.252984 28.913841,22.0747533 C28.913841,22.5726802 28.5101284,22.9763927 28.0122017,22.9763927 C27.5142749,22.9763927 27.1105623,22.5726802 27.1105623,22.0747533 C27.1105623,20.9441821 26.1939543,20.0275742 25.0633831,20.0275742 C23.9328119,20.0275742 23.0162039,20.9441821 23.0162039,22.0747533 C23.0162039,23.2053245 23.9328119,24.1219325 25.0633831,24.1219325 C27.0361594,24.1223728 28.6893117,25.6135117 28.8927089,27.5757219 C29.0956657,29.5379321 27.7832698,31.3363681 25.8523175,31.7405208 L25.8523175,31.7405208 L25.8523175,32.5875687 C25.8523175,33.0854956 25.448605,33.4892081 24.9506782,33.4892081 C24.4527514,33.4892081 24.0490389,33.0854956 24.0490389,32.5875687 L24.0490389,32.5875687 L24.0490389,31.6859294 C22.3760752,31.2267449 21.2155668,29.7069895 21.2129252,27.9719501 C21.2129252,27.4740233 21.6166378,27.0703108 22.1145645,27.0703108 C22.6124914,27.0703108 23.0162039,27.4740233 23.0162039,27.9719501 C23.017965,29.0109486 23.7967736,29.8844117 24.8291682,30.0046009 C24.9321875,29.989192 25.0365277,29.9931544 25.1382263,30.015167 C26.2529482,29.9746637 27.1299334,29.0483701 27.1092416,27.9332078 C27.0889898,26.8180455 26.1789856,25.9247709 25.0633831,25.9247709 C23.1346322,25.9252112 21.5034927,24.4983493 21.247265,22.5867683 C20.9910374,20.6751873 22.1885271,18.8688268 24.0490389,18.3607741 L24.0490389,18.3607741 L24.0490389,17.4851097 C24.0490389,16.9871829 24.4527514,16.5834704 24.9506782,16.5834704 Z M25.0633831,0.0158474162 C25.56131,0.0158474162 25.9650225,0.419559926 25.9650225,0.917486761 L25.9650225,0.917486761 L25.9650225,9.48306053 C25.9650225,9.98098737 25.56131,10.3846999 25.0633831,10.3846999 C24.5654563,10.3846999 24.1617438,9.98098737 24.1617438,9.48306053 L24.1617438,9.48306053 L24.1617438,0.917486761 C24.1617438,0.419559926 24.5654563,0.0158474162 25.0633831,0.0158474162 Z M31.8256782,4.52404414 C32.323605,4.52404414 32.7273175,4.92775665 32.7273175,5.42568348 L32.7273175,5.42568348 L32.7273175,9.48306053 C32.7273175,9.98098737 32.323605,10.3846999 31.8256782,10.3846999 C31.3277514,10.3846999 30.9240389,9.98098737 30.9240389,9.48306053 L30.9240389,9.48306053 L30.9240389,5.42568348 C30.9240389,4.92775665 31.3277514,4.52404414 31.8256782,4.52404414 Z M18.301088,4.52404414 C18.7990149,4.52404414 19.2027274,4.92775665 19.2027274,5.42568348 L19.2027274,5.42568348 L19.2027274,9.48306053 C19.2027274,9.98098737 18.7990149,10.3846999 18.301088,10.3846999 C17.8031612,10.3846999 17.3994487,9.98098737 17.3994487,9.48306053 L17.3994487,9.48306053 L17.3994487,5.42568348 C17.3994487,4.92775665 17.8031612,4.52404414 18.301088,4.52404414 Z" id="Combined-Shape"></path>
                </g>
            </g>
        </g>
    </g>
</svg>