<?xml version="1.0" encoding="UTF-8"?>
<svg width="55px" height="53px" viewBox="0 0 55 53" version="1.1" xmlns="http://www.w3.org/2000/svg" xmlns:xlink="http://www.w3.org/1999/xlink">
    <!-- Generator: sketchtool 61.2 (101010) - https://sketch.com -->
    <title>DD31B4CB-326F-4981-8401-43D3D3C692AD</title>
    <desc>Created with sketchtool.</desc>
    <g id="Page-1" stroke="none" stroke-width="1" fill="none" fill-rule="evenodd">
        <g id="About-us" transform="translate(-883.000000, -5063.000000)" fill="#FFFFFF" fill-rule="nonzero">
            <g id="Group-4-Copy" transform="translate(105.000000, 3910.000000)">
                <path d="M820.349533,1153.31807 C827.325929,1153.31807 833.00007,1159.00526 833.00007,1165.98122 C833.00007,1172.95762 827.323318,1178.64525 820.347357,1178.64525 C820.116754,1178.64525 819.88093,1178.63872 819.658159,1178.62654 L819.658159,1178.62654 L819.658159,1198.68291 C819.658159,1202.54399 816.531094,1205.67584 812.670015,1205.68193 L812.670015,1205.68193 L812.650871,1205.68193 C812.509898,1205.68193 812.418092,1205.66409 812.195321,1205.65583 L812.195321,1205.65583 L812.195321,1205.68193 L784.683069,1205.68193 L784.683069,1205.66235 C780.95252,1205.49354 778.011243,1202.42564 777.99993,1198.69118 L777.99993,1198.69118 L777.99993,1194.72437 C777.99993,1194.2314 778.422413,1193.87506 778.914511,1193.87506 L778.914511,1193.87506 L785.218677,1193.87506 L785.429265,1162.61572 C785.432746,1162.12623 785.830428,1161.68461 786.320351,1161.68461 L786.320351,1161.68461 L808.436926,1161.68461 C810.189509,1156.89502 814.867706,1153.31807 820.349533,1153.31807 Z M805.623568,1195.65723 L779.782101,1195.65723 L779.782101,1198.68204 C779.795154,1201.56502 782.133817,1203.89585 785.016355,1203.89976 L785.016355,1203.89976 L807.994429,1203.89976 C807.896532,1203.78838 807.78036,1203.71615 807.686813,1203.6226 C806.36759,1202.31165 805.624874,1200.52904 805.623568,1198.66942 L805.623568,1198.66942 L805.623568,1195.65723 Z M807.942217,1163.46678 L787.205344,1163.46678 L787.000847,1193.87506 L806.555118,1193.87506 C806.782675,1193.86722 807.003271,1193.95381 807.164693,1194.1148 C807.326115,1194.27578 807.413135,1194.49638 807.405739,1194.72437 L807.405739,1194.72437 L807.405739,1198.67029 C807.420097,1201.55892 809.763111,1203.89454 812.652176,1203.89976 L812.652176,1203.89976 L812.669145,1203.89976 C815.546462,1203.89411 817.876424,1201.55979 817.875989,1198.68204 L817.875989,1198.68204 L817.875989,1178.40377 C814.51745,1177.72936 811.578784,1175.71398 809.740486,1172.82317 L809.740486,1172.82317 L800.357116,1172.82317 C799.864583,1172.82317 799.466031,1172.42418 799.466031,1171.93209 C799.466031,1171.43999 799.864583,1171.041 800.357116,1171.041 L800.357116,1171.041 L808.773693,1171.041 C808.06274,1169.43505 807.696386,1167.69813 807.698126,1165.94163 C807.702477,1165.11102 807.784276,1164.28259 807.942217,1163.46678 L807.942217,1163.46678 Z M794.63729,1184.71663 C796.210177,1184.71663 797.489806,1185.95536 797.489806,1187.47821 C797.489806,1189.00106 796.210177,1190.23979 794.63729,1190.23979 C793.064403,1190.23979 791.785208,1189.00106 791.785208,1187.47821 C791.785208,1185.95536 793.064403,1184.71663 794.63729,1184.71663 Z M794.63729,1186.4988 C794.047294,1186.4988 793.567379,1186.93825 793.567379,1187.47821 C793.567379,1188.01861 794.046859,1188.45762 794.63729,1188.45762 C795.227286,1188.45762 795.707636,1188.01817 795.707636,1187.47821 C795.707636,1186.93825 795.227286,1186.4988 794.63729,1186.4988 Z M812.237091,1186.63499 C812.729189,1186.63499 813.128176,1187.03398 813.128176,1187.52607 C813.128176,1188.01817 812.729189,1188.41716 812.237091,1188.41716 L812.237091,1188.41716 L800.357116,1188.41716 C799.864583,1188.41716 799.466031,1188.01817 799.466031,1187.52607 C799.466031,1187.03398 799.864583,1186.63499 800.357116,1186.63499 L800.357116,1186.63499 Z M794.63729,1176.97142 C796.210177,1176.97142 797.489806,1178.21015 797.489806,1179.733 C797.489806,1181.25585 796.210177,1182.49458 794.63729,1182.49458 C793.064403,1182.49458 791.785208,1181.25585 791.785208,1179.733 C791.785208,1178.21015 793.064403,1176.97142 794.63729,1176.97142 Z M794.63729,1178.75359 C794.047294,1178.75359 793.567379,1179.1926 793.567379,1179.733 C793.567379,1180.27296 794.046859,1180.71241 794.63729,1180.71241 C795.227286,1180.71241 795.707636,1180.27296 795.707636,1179.733 C795.707636,1179.19304 795.227286,1178.75359 794.63729,1178.75359 Z M812.237091,1178.838 C812.729189,1178.838 813.128176,1179.23698 813.128176,1179.72908 C813.128176,1180.22118 812.729189,1180.62017 812.237091,1180.62017 L812.237091,1180.62017 L800.357116,1180.62017 C799.864583,1180.62017 799.466031,1180.22118 799.466031,1179.72908 C799.466031,1179.23698 799.864583,1178.838 800.357116,1178.838 L800.357116,1178.838 Z M820.349968,1155.12504 C814.346891,1155.12504 809.480731,1159.9912 809.480731,1165.99427 C809.480296,1171.99735 814.346891,1176.86351 820.349533,1176.86351 C826.349999,1176.85698 831.212243,1171.9943 831.21877,1165.99427 C831.21877,1159.99163 826.35261,1155.12504 820.349968,1155.12504 Z M794.63729,1169.22533 C796.210177,1169.22533 797.489806,1170.46449 797.489806,1171.98734 C797.489806,1173.51019 796.210177,1174.74892 794.63729,1174.74892 C793.064403,1174.74892 791.785208,1173.51019 791.785208,1171.98734 C791.785208,1170.46449 793.064403,1169.22533 794.63729,1169.22533 Z M820.215087,1157.67472 C820.707185,1157.67472 821.106172,1158.07371 821.106172,1158.56581 L821.106172,1158.56581 L821.106172,1159.42209 C822.83613,1159.80323 824.069204,1161.33566 824.07138,1163.10695 C824.07138,1163.59905 823.672393,1163.99803 823.180294,1163.99803 C822.688196,1163.99803 822.289209,1163.59905 822.289209,1163.10695 C822.287904,1162.02399 821.421185,1161.14073 820.33822,1161.11854 C820.297756,1161.1242 820.256421,1161.12768 820.215087,1161.12768 C820.190721,1161.12768 820.166791,1161.12594 820.14286,1161.1242 C819.076865,1161.20774 818.267144,1162.1184 818.308913,1163.18657 C818.351118,1164.25474 819.229585,1165.09884 820.298626,1165.0984 C822.22525,1165.09797 823.842517,1166.54946 824.049624,1168.46477 C824.257167,1170.38008 822.98798,1172.14398 821.106172,1172.55602 L821.106172,1172.55602 L821.106172,1173.49148 C821.106172,1173.98358 820.707185,1174.38257 820.215087,1174.38257 C819.722989,1174.38257 819.324002,1173.98358 819.324002,1173.49148 L819.324002,1173.49148 L819.324002,1172.51512 C817.674972,1172.07175 816.528048,1170.57805 816.525873,1168.87072 C816.525873,1168.37862 816.92486,1167.97964 817.416958,1167.97964 C817.909056,1167.97964 818.308043,1168.37862 818.308043,1168.87072 C818.308043,1169.96978 819.199128,1170.8613 820.298626,1170.8613 C821.398124,1170.8613 822.289209,1169.96978 822.289209,1168.87072 C822.289209,1167.77122 821.398124,1166.8797 820.298626,1166.8797 C818.40507,1166.8797 816.804772,1165.47607 816.55807,1163.59861 C816.311368,1161.72116 817.494841,1159.9516 819.324002,1159.46255 L819.324002,1159.46255 L819.324002,1158.56581 C819.324002,1158.07371 819.722989,1157.67472 820.215087,1157.67472 Z M794.63729,1171.0075 C794.047294,1171.0075 793.567379,1171.44738 793.567379,1171.98734 C793.567379,1172.5273 794.046859,1172.96675 794.63729,1172.96675 L794.63729,1172.96675 C795.227286,1172.96719 795.707636,1172.5273 795.707636,1171.98734 C795.707636,1171.44695 795.227286,1171.0075 794.63729,1171.0075 Z" id="Combined-Shape"></path>
            </g>
        </g>
    </g>
</svg>