<?xml version="1.0" encoding="UTF-8"?>
<svg width="55px" height="55px" viewBox="0 0 55 55" version="1.1" xmlns="http://www.w3.org/2000/svg" xmlns:xlink="http://www.w3.org/1999/xlink">
    <!-- Generator: sketchtool 61.2 (101010) - https://sketch.com -->
    <title>F8B83FDD-994A-4F29-B181-D140F3120E12</title>
    <desc>Created with sketchtool.</desc>
    <g id="Page-1" stroke="none" stroke-width="1" fill="none" fill-rule="evenodd">
        <g id="About-us" transform="translate(-883.000000, -4352.000000)" fill="#FFFFFF" fill-rule="nonzero">
            <g id="Group-4-Copy" transform="translate(105.000000, 3910.000000)">
                <path d="M785.472041,449.47169 C792.708123,442.23606 803.59023,440.071374 813.044258,443.987307 C822.498737,447.903241 828.662857,457.128884 828.662857,467.361946 C828.662857,468.837417 828.534673,470.31018 828.28011,471.763535 C832.186114,475.377514 833.802407,480.838878 832.491679,485.996482 C831.180952,491.153635 827.153986,495.181052 821.996382,496.49178 C816.838777,497.802056 811.377413,496.186214 807.763435,492.28021 C806.31008,492.534773 804.837768,492.662957 803.362297,492.662957 C793.128784,492.662957 783.90314,486.498837 779.987207,477.044358 C776.071273,467.589879 778.235959,456.707772 785.472041,449.47169 Z M818.416254,469.739219 C811.414875,469.739219 805.739119,475.414976 805.739119,482.416355 C805.739119,489.417733 811.414875,495.093039 818.416254,495.093039 C825.414473,495.085366 831.085265,489.414122 831.09339,482.415903 C831.09339,475.414976 825.417633,469.739219 818.416254,469.739219 Z M803.362297,443.910126 C790.430599,443.910126 779.910477,454.430699 779.910477,467.361946 C779.910477,480.293193 790.430599,490.813766 803.362297,490.813766 C804.388221,490.813766 805.413694,490.746515 806.431493,490.613366 C805.595589,489.39652 804.950606,488.05826 804.519565,486.645978 C804.134561,486.668997 803.747301,486.681635 803.362297,486.681635 C792.709929,486.681635 784.04306,478.015217 784.04306,467.362398 C784.04306,456.709578 792.709929,448.04316 803.362297,448.04316 C814.015117,448.04316 822.681535,456.709578 822.681535,467.362398 C822.681535,467.747401 822.668897,468.13421 822.645878,468.519665 C824.058159,468.950707 825.395968,469.595238 826.613265,470.431143 C826.746414,469.413343 826.814117,468.388322 826.814117,467.361946 C826.814117,454.430699 816.293544,443.910126 803.362297,443.910126 Z M822.157966,477.478108 C822.496029,477.478108 823.11709,477.753433 823.11709,478.212007 C823.113027,478.292799 823.091363,478.371334 823.054803,478.443099 L823.054803,478.443099 L821.049896,482.442984 L821.909271,482.442984 L821.909271,481.735715 C821.909271,481.292036 822.391315,481.134965 822.83364,481.134965 C823.276417,481.134965 823.75801,481.292036 823.75801,481.735715 L823.75801,481.735715 L823.75801,482.442984 L824.249533,482.442984 C824.671096,482.442984 824.862018,482.938569 824.862018,483.367354 C824.862018,483.815999 824.558709,484.291724 824.249533,484.291724 L824.249533,484.291724 L823.75801,484.291724 L823.75801,485.433646 C823.75801,485.854306 823.295825,486.046131 822.83364,486.046131 C822.371455,486.046131 821.909271,485.854306 821.909271,485.433646 L821.909271,485.433646 L821.909271,484.291724 L819.24584,484.291724 C818.851809,484.291724 818.587317,484.004212 818.587317,483.596641 C818.588671,483.461235 818.622522,483.328538 818.686614,483.208929 L818.686614,483.208929 L821.355912,477.975047 C821.502602,477.666322 821.816292,477.471789 822.157966,477.478108 Z M814.782416,477.483975 C816.115711,477.483975 817.529347,478.342448 817.529347,479.933465 C817.529347,481.485666 816.20553,482.387017 815.14756,483.110986 L815.000963,483.211303 C814.421542,483.608571 813.936581,483.959216 813.936581,484.312938 L813.936581,484.312938 L813.936581,484.40727 L816.934464,484.40727 C817.259889,484.40727 817.535214,484.753909 817.535214,485.204358 C817.535214,485.660224 817.254473,486.024917 816.934464,486.024917 L816.934464,486.024917 L812.820838,486.024917 C812.476908,486.024917 811.971393,485.807365 811.971393,485.433646 L811.971393,485.433646 L811.971393,484.312938 C811.971393,483.328538 812.985131,482.586966 813.962309,481.869315 C814.811754,481.245998 815.617418,480.656983 815.617418,479.991238 C815.617418,479.639635 815.402123,479.228452 814.796859,479.228452 C814.495356,479.228452 813.988036,479.333618 813.988036,480.037276 C813.988036,480.384817 813.635529,480.754024 812.982874,480.754024 C812.399275,480.754024 812.114923,480.428599 812.114923,479.760146 C812.114923,478.281064 813.488389,477.483975 814.782416,477.483975 Z M803.361846,449.891448 C793.728631,449.891448 785.891348,457.728732 785.891348,467.361946 C785.891348,476.995161 793.728631,484.832444 803.361846,484.832444 C803.604673,484.832444 803.847501,484.826577 804.089877,484.816647 C803.95718,484.023169 803.890831,483.220213 803.890379,482.415903 C803.890831,478.144304 805.771616,474.089354 809.032186,471.329334 C812.292756,468.569314 816.603172,467.384514 820.816095,468.089978 C820.826476,467.84715 820.832795,467.604322 820.832795,467.361946 C820.832795,457.728732 812.995512,449.891448 803.361846,449.891448 Z M802.38196,458.38906 C802.892439,458.38906 803.306329,458.80295 803.306329,459.31343 L803.306329,459.31343 L803.306329,467.999707 L809.365736,467.999707 C809.876215,467.999707 810.290105,468.413146 810.290105,468.924077 C810.290105,469.434556 809.876215,469.848447 809.365736,469.848447 L809.365736,469.848447 L802.339533,469.848447 C801.829053,469.848447 801.45759,469.407024 801.45759,468.896544 L801.45759,468.896544 L801.45759,459.31343 C801.45759,458.80295 801.87148,458.38906 802.38196,458.38906 Z" id="Combined-Shape"></path>
            </g>
        </g>
    </g>
</svg>