<?xml version="1.0" encoding="UTF-8"?>
<svg width="40px" height="40px" viewBox="0 0 40 40" version="1.1" xmlns="http://www.w3.org/2000/svg" xmlns:xlink="http://www.w3.org/1999/xlink">
    <!-- Generator: sketchtool 61.2 (101010) - https://sketch.com -->
    <title>22104F95-0E3F-47A5-8702-FEA5EB103334</title>
    <desc>Created with sketchtool.</desc>
    <g id="Page-1" stroke="none" stroke-width="1" fill="none" fill-rule="evenodd">
        <g id="Contact-Us" transform="translate(-45.000000, -4676.000000)">
            <g id="Group-19" transform="translate(0.000000, 4612.000000)">
                <g id="Group-8" transform="translate(45.000000, 64.000000)">
                    <circle id="Oval" fill="#FFFFFF" cx="19.9903186" cy="19.9903186" r="19.9903186"></circle>
                    <path d="M19.9903186,4.05362974 C11.1887284,4.05362974 4.05362974,11.1887284 4.05362974,19.9903186 C4.05362974,28.7919088 11.1887284,35.9270075 19.9903186,35.9270075 C28.7919088,35.9270075 35.9270075,28.7919088 35.9270075,19.9903186 C35.9270075,11.1887284 28.7919088,4.05362974 19.9903186,4.05362974 Z M19.9903186,4.4854786 C28.5534053,4.4854786 35.4951586,11.4272319 35.4951586,19.9903186 C35.4951586,28.5534053 28.5534053,35.4951586 19.9903186,35.4951586 C11.4272319,35.4951586 4.4854786,28.5534053 4.4854786,19.9903186 C4.4854786,11.4272319 11.4272319,4.4854786 19.9903186,4.4854786 Z" id="Oval-Copy" fill="#20222D" fill-rule="nonzero"></path>
                    <path d="M10.8455581,28.4645256 C10.8535365,28.5031036 10.861421,28.5414939 10.8693994,28.5798841 C10.8871397,28.6659572 10.9049738,28.7520303 10.9227141,28.8380094 C10.9428009,28.9353462 10.9629816,29.032589 10.9830684,29.1300196 L10.9830684,29.1300196 L11.0279353,29.3466571 C11.0436106,29.4232499 11.0769322,29.5008752 11.0621956,29.5796269 C11.0614447,29.5834753 11.0509319,29.6269343 11.0420149,29.6246815 C11.1034018,29.6399813 11.053654,29.6901984 11.053654,29.6901984 C11.0091626,29.7332819 11.0251194,29.7803076 11.0753365,29.8093115 C11.1282757,29.8397234 11.1948251,29.8149433 11.2334031,29.7727985 C11.407708,29.5825367 11.2237351,29.4365786 11.2237351,29.4365786 C11.1805578,29.3988453 11.2326522,29.3827008 11.2326522,29.3827008 C11.0305635,29.1348066 11.1145716,28.9202341 11.1145716,28.9202341 C11.2126592,28.6807877 11.3192884,28.7412359 11.3192884,28.7412359 C11.0770261,28.9700757 11.3869642,29.3173716 11.3869642,29.3173716 C11.4196287,29.361863 11.4605533,29.3346425 11.4605533,29.3346425 C11.449102,29.4447447 11.4740697,29.5538144 11.4740697,29.5538144 C11.5086116,29.7036209 11.4640263,29.8938828 11.3080247,29.9554574 C11.2875624,29.9634358 11.2313381,29.9573347 11.2331215,29.988779 C11.2337785,30.002577 11.2462624,30.0129959 11.253396,30.0235086 C11.2813674,30.0641516 11.2075905,30.0394654 11.2075905,30.0394654 C11.1634746,30.0334582 11.1023693,30.0301729 11.1023693,30.0301729 C11.0287801,30.0152486 11.047459,30.0720362 11.047459,30.0720362 L11.047459,30.0720362 L10.984754,30.0734841 L10.9938816,30.6481155 L10.8460461,30.6481155 L10.8369414,30.0783626 L10.7915864,30.0793575 C10.8164603,30.0091474 10.6330505,30.0802962 10.6330505,30.0802962 C10.5702557,30.0966285 10.5814255,30.0621805 10.5814255,30.0621805 C10.5862125,30.0471623 10.6076135,30.0344907 10.5952234,30.0165627 C10.5884652,30.0066131 10.5741041,30.0063315 10.5634975,30.004642 C10.4722619,29.9904686 10.3838423,29.9304896 10.3485495,29.844135 C10.3174806,29.7681053 10.3162604,29.6817507 10.3193579,29.6014972 C10.3202965,29.5721178 10.3226431,29.5426446 10.3257406,29.513453 C10.3300583,29.4744995 10.3251774,29.4448386 10.3163542,29.4063544 C10.3532427,29.408044 10.3793368,29.4161163 10.4017703,29.3830762 C10.4121891,29.3674949 10.4215755,29.3511626 10.4300232,29.334361 C10.4455108,29.3038552 10.4580885,29.2718477 10.4686012,29.2393708 C10.4795833,29.2050167 10.4861538,29.1702871 10.4940383,29.1353698 C10.545945,28.9046527 10.4091855,28.8110706 10.4091855,28.8110706 C10.5812377,28.7720232 10.6327689,29.0388779 10.6327689,29.0388779 C10.6649642,29.2305476 10.5633098,29.4286002 10.5633098,29.4286002 C10.5956928,29.4396385 10.5915477,29.4566917 10.5830504,29.4685681 L10.5697864,29.4821025 C10.4135971,29.6499309 10.5389991,29.7756144 10.5389991,29.7756144 C10.5772016,29.8246113 10.6339892,29.8547416 10.6965963,29.8517379 C10.7448423,29.8493913 10.769153,29.8219831 10.7696223,29.7706397 C10.7697161,29.7591883 10.7714996,29.7328126 10.7643659,29.722863 C10.7186543,29.6583786 10.75742,29.6499309 10.75742,29.6499309 C10.6996938,29.5954899 10.7385534,29.4187445 10.7385534,29.4187445 L10.7385534,29.4187445 Z M27.9244933,29.8159636 C27.9244933,30.2788347 27.4489335,30.3132101 27.3698304,30.3157597 L27.0349628,30.3159636 C26.9739528,30.3159636 26.9244933,30.2788689 26.9244933,30.2331115 L26.9244933,29.3988157 C26.9244933,29.3530583 26.9739528,29.3159636 27.0349628,29.3159636 L27.3588188,29.3159636 C27.366371,29.3159636 27.9244933,29.3145199 27.9244933,29.8159636 Z M20.0607071,29.3159449 C20.1001791,29.3159449 20.1379174,29.3373798 20.1533862,29.3688103 L20.5530394,30.2016623 C20.5582401,30.2116579 20.5598403,30.2230973 20.5598403,30.2330928 C20.5598403,30.2759627 20.5203684,30.3159449 20.4603604,30.3159449 C20.4208885,30.3159449 20.3831501,30.2959538 20.3678147,30.2631906 L20.2922047,30.1073709 L19.827476,30.1073709 L19.7519993,30.2631906 C19.7365306,30.2959538 19.6987922,30.3159449 19.6593203,30.3159449 C19.6010458,30.3159449 19.5598403,30.2745189 19.5598403,30.2330928 C19.5598403,30.2216535 19.5615739,30.2116579 19.5667746,30.2016623 L19.9664279,29.3688103 C19.9817633,29.3373798 20.019635,29.3159449 20.0607071,29.3159449 Z M17.4001049,29.3558348 C17.4388705,29.3683652 17.4737358,29.3832797 17.504496,29.4003982 L17.503464,29.3988157 C17.503464,29.3530583 17.5610736,29.3159637 17.6317529,29.3159637 L17.9834296,29.3159637 C17.9966712,29.3159637 18.114126,29.3174075 18.2357081,29.3558348 C18.2747532,29.3684555 18.3098417,29.3834949 18.3407641,29.4007688 L18.339086,29.3859672 C18.339086,29.3472954 18.3704365,29.3159449 18.4091083,29.3159449 C18.4476863,29.3159449 18.4791307,29.3472954 18.4791307,29.3859672 L18.4812012,29.5431836 C18.4959086,29.5756741 18.503464,29.611003 18.503464,29.6488157 C18.503464,29.6548834 18.5023385,29.6955042 18.4803085,29.7461221 L18.4791307,30.0910717 C18.4791307,30.1161205 18.4659382,30.1380977 18.4461597,30.1504731 L18.4833436,30.188798 C18.4967572,30.2030139 18.503464,30.2173408 18.503464,30.2331116 C18.503464,30.2602107 18.4812799,30.2874208 18.4413831,30.3030805 C18.4214347,30.3116322 18.3971871,30.3159637 18.3750031,30.3159637 C18.330807,30.3159637 18.2888466,30.3016367 18.264427,30.2773142 L17.9791303,29.9831116 L17.7622774,29.9831116 L17.7622774,30.2331116 C17.7622774,30.278869 17.7026041,30.3159637 17.6317529,30.3159637 C17.5610736,30.3159637 17.503464,30.278869 17.503464,30.2331116 L17.5051132,29.8990397 C17.414593,29.953675 17.2918835,29.9831116 17.1478263,29.9831116 L16.9266741,29.9831116 L16.9266741,30.2331116 C16.9266741,30.278869 16.8692365,30.3159637 16.7961496,30.3159637 C16.7254703,30.3159637 16.6678607,30.278869 16.6678607,30.2331116 L16.6678607,29.3988157 C16.6678607,29.3530583 16.7254703,29.3159637 16.7961496,29.3159637 L17.1478263,29.3159637 C17.1610679,29.3159637 17.2785228,29.3174075 17.4001049,29.3558348 Z M12.6287065,29.3159918 C12.6999491,29.3159918 12.7687512,29.3340137 12.8303258,29.3666782 C12.8642106,29.3860142 12.8774454,29.4282529 12.8593297,29.4619499 C12.8399938,29.4969611 12.7977551,29.5090695 12.7627439,29.4910477 C12.7229457,29.4680511 12.6758261,29.4572568 12.6287065,29.4572568 C12.4741129,29.4572568 12.3473968,29.5828465 12.3473968,29.7385664 C12.3473968,29.8942864 12.4741129,30.0198761 12.6287065,30.0198761 C12.6758261,30.0198761 12.7229457,30.0089879 12.7627439,29.9859913 C12.7977551,29.9678756 12.8399938,29.979984 12.8593297,30.0149952 C12.8774454,30.0487861 12.8642106,30.0911187 12.8303258,30.1104546 C12.7687512,30.1429314 12.6999491,30.161141 12.6287065,30.161141 C12.3957366,30.161141 12.2061319,29.9715362 12.2061319,29.7385664 C12.2061319,29.5055027 12.3957366,29.3159918 12.6287065,29.3159918 Z M14.1164,29.3159449 C14.1550718,29.3159449 14.1864223,29.3472954 14.1864223,29.3859672 L14.1864223,30.0910717 C14.1864223,30.1297436 14.1550718,30.1610941 14.1164,30.1610941 C14.077822,30.1610941 14.0463776,30.1297436 14.0463776,30.0910717 L14.0463776,29.3859672 C14.0463776,29.3472954 14.077822,29.3159449 14.1164,29.3159449 Z M26.5633244,29.3159449 C26.6032165,29.3159449 26.634567,29.3472954 26.634567,29.3859672 C26.634567,29.4257655 26.6032165,29.4572098 26.5633244,29.4572098 L26.2470036,29.4572098 L26.2470036,29.6684971 L26.4933021,29.6684971 C26.5319739,29.6684971 26.5633244,29.6998476 26.5633244,29.7385195 C26.5633244,29.7770975 26.5319739,29.8085418 26.4933021,29.8085418 L26.2470036,29.8085418 L26.2470036,30.0198291 L26.5633244,30.0198291 C26.6032165,30.0198291 26.634567,30.0511796 26.634567,30.0910717 C26.634567,30.1297436 26.6032165,30.1610941 26.5633244,30.1610941 L26.1769812,30.1610941 C26.1370891,30.1610941 26.1057386,30.1297436 26.1057386,30.0910717 L26.1057386,29.3859672 C26.1057386,29.3472954 26.1370891,29.3159449 26.1769812,29.3159449 L26.5633244,29.3159449 Z M22.6498537,29.3159543 C22.6885256,29.3159543 22.7198761,29.3473048 22.7198761,29.3859766 L22.7198761,30.0198385 L22.9661746,30.0198385 C23.0048464,30.0198385 23.0374172,30.051189 23.0374172,30.0910811 C23.0374172,30.129753 23.0048464,30.1611035 22.9661746,30.1611035 L22.6498537,30.1611035 C22.6099616,30.1611035 22.5786112,30.129753 22.5786112,30.0910811 L22.5786112,29.3859766 C22.5786112,29.3473048 22.6099616,29.3159543 22.6498537,29.3159543 Z M23.3973659,29.3159449 C23.4359439,29.3159449 23.4673882,29.3472954 23.4673882,29.3859672 L23.4673882,30.0910717 C23.4673882,30.1297436 23.4359439,30.1610941 23.3973659,30.1610941 C23.358694,30.1610941 23.3273435,30.1297436 23.3273435,30.0910717 L23.3273435,29.3859672 C23.3273435,29.3472954 23.358694,29.3159449 23.3973659,29.3159449 Z M13.6852931,29.315973 C13.7250914,29.315973 13.7565357,29.3473235 13.7565357,29.3859954 L13.7565357,30.0910999 C13.7565357,30.1297717 13.7250914,30.1611222 13.6852931,30.1611222 C13.6466213,30.1611222 13.6152708,30.1297717 13.6152708,30.0910999 L13.6152708,29.80857 L13.29895,29.80857 L13.29895,30.0910999 C13.29895,30.1297717 13.2662854,30.1611222 13.2277074,30.1611222 C13.1890355,30.1611222 13.157685,30.1297717 13.157685,30.0910999 L13.157685,29.3859954 C13.157685,29.3473235 13.1890355,29.315973 13.2277074,29.315973 C13.2662854,29.315973 13.29895,29.3473235 13.29895,29.3859954 L13.29895,29.6685253 L13.6152708,29.6685253 L13.6152708,29.3859954 C13.6152708,29.3473235 13.6466213,29.315973 13.6852931,29.315973 Z M14.9688799,29.3159637 C15.0074579,29.3159637 15.0401225,29.3473141 15.0401225,29.385986 C15.0401225,29.4257842 15.0074579,29.4572286 14.9688799,29.4572286 L14.8288352,29.4572286 L14.8288352,30.0910905 C14.8288352,30.1297624 14.7961706,30.1611129 14.7575926,30.1611129 C14.7189207,30.1611129 14.6875703,30.1297624 14.6875703,30.0910905 L14.6875703,29.4572286 L14.5463053,29.4572286 C14.5076334,29.4572286 14.476283,29.4257842 14.476283,29.385986 C14.476283,29.3473141 14.5076334,29.3159637 14.5463053,29.3159637 L14.9688799,29.3159637 Z M20.8820239,29.3159637 C20.9206019,29.3159637 20.9532665,29.3473141 20.9532665,29.385986 C20.9532665,29.4257842 20.9206019,29.4572286 20.8820239,29.4572286 L20.7419792,29.4572286 L20.7419792,30.0910905 C20.7419792,30.1297624 20.7093146,30.1611129 20.6707366,30.1611129 C20.6320647,30.1611129 20.6007142,30.1297624 20.6007142,30.0910905 L20.6007142,29.4572286 L20.4594493,29.4572286 C20.4207774,29.4572286 20.3894269,29.4257842 20.3894269,29.385986 C20.3894269,29.3473141 20.4207774,29.3159637 20.4594493,29.3159637 L20.8820239,29.3159637 Z M24.8922118,29.3159449 C24.9307898,29.3159449 24.9622341,29.3472954 24.9622341,29.3859672 L24.9622341,30.0910717 C24.9622341,30.1297436 24.9307898,30.1610941 24.8922118,30.1610941 C24.8535399,30.1610941 24.8221894,30.1297436 24.8221894,30.0910717 L24.8221894,29.3859672 C24.8221894,29.3472954 24.8535399,29.3159449 24.8922118,29.3159449 Z M24.4611237,29.3159449 C24.5022361,29.3159449 24.5323663,29.3485156 24.5323663,29.3859672 L24.5323663,30.0910717 C24.5323663,30.1297436 24.5010158,30.1610941 24.4611237,30.1610941 C24.4225457,30.1610941 24.3911014,30.1297436 24.3911014,30.0910717 L24.3911014,29.5972545 L24.2014966,29.8507805 C24.1882618,29.8688962 24.1664854,29.8797844 24.1448029,29.8797844 C24.1231204,29.8797844 24.101344,29.8688962 24.0880153,29.8507805 L23.8985044,29.5972545 L23.8985044,30.0910717 C23.8985044,30.1297436 23.8671539,30.1610941 23.8272618,30.1610941 C23.78859,30.1610941 23.7572395,30.1297436 23.7572395,30.0910717 L23.7572395,29.3859672 C23.7572395,29.3485156 23.7873697,29.3159449 23.8284821,29.3159449 C23.8501646,29.3159449 23.8707207,29.3256128 23.8840494,29.3437286 L24.1448029,29.6913999 L24.4055564,29.3437286 C24.418885,29.3256128 24.4394412,29.3159449 24.4611237,29.3159449 Z M21.7007411,29.3159449 C21.7406331,29.3159449 21.7719836,29.3472954 21.7719836,29.3859672 C21.7719836,29.4257655 21.7406331,29.4572098 21.7007411,29.4572098 L21.3844202,29.4572098 L21.3844202,29.6684971 L21.6307187,29.6684971 C21.6693906,29.6684971 21.7007411,29.6998476 21.7007411,29.7385195 C21.7007411,29.7770975 21.6693906,29.8085418 21.6307187,29.8085418 L21.3844202,29.8085418 L21.3844202,30.0198291 L21.7007411,30.0198291 C21.7406331,30.0198291 21.7719836,30.0511796 21.7719836,30.0910717 C21.7719836,30.1297436 21.7406331,30.1610941 21.7007411,30.1610941 L21.3143979,30.1610941 C21.2745058,30.1610941 21.2431553,30.1297436 21.2431553,30.0910717 L21.2431553,29.3859672 C21.2431553,29.3472954 21.2745058,29.3159449 21.3143979,29.3159449 L21.7007411,29.3159449 Z M25.7447011,29.3159637 C25.783373,29.3159637 25.8159437,29.3473141 25.8159437,29.385986 C25.8159437,29.4257842 25.783373,29.4572286 25.7447011,29.4572286 L25.6046564,29.4572286 L25.6046564,30.0910905 C25.6046564,30.1297624 25.5719918,30.1611129 25.5334138,30.1611129 C25.4947419,30.1611129 25.4633915,30.1297624 25.4633915,30.0910905 L25.4633915,29.4572286 L25.3221265,29.4572286 C25.2834546,29.4572286 25.2521042,29.4257842 25.2521042,29.385986 C25.2521042,29.3473141 25.2834546,29.3159637 25.3221265,29.3159637 L25.7447011,29.3159637 Z M19.4028345,29.3159918 C19.4450731,29.3159918 19.4728568,29.351003 19.4728568,29.3860142 C19.4728568,29.3944619 19.4716366,29.404036 19.4679759,29.4124837 L19.1866662,30.1164619 C19.1758719,30.1429314 19.1493085,30.161141 19.1215248,30.161141 C19.0925209,30.161141 19.0659575,30.1429314 19.0551631,30.1164619 L18.7738535,29.4124837 C18.7701928,29.404036 18.7689726,29.3955883 18.7689726,29.3871405 C18.7689726,29.351003 18.7979765,29.3159918 18.8389949,29.3159918 C18.8667786,29.3159918 18.893342,29.3327934 18.9042302,29.3605771 L19.1215248,29.9015139 L19.337693,29.3605771 C19.3484873,29.3327934 19.3750508,29.3159918 19.4028345,29.3159918 Z M15.6329565,29.3147247 C15.683643,29.3159449 15.7356435,29.336501 15.7778822,29.3678515 C15.7959979,29.3823066 15.8056658,29.4028627 15.8056658,29.4234189 C15.8056658,29.4378739 15.8007849,29.4535491 15.7912108,29.4656576 C15.7767558,29.4837733 15.7561997,29.4934412 15.7344233,29.4934412 C15.7199682,29.4934412 15.7055132,29.4897805 15.6921846,29.4801126 C15.6740689,29.4656576 15.6499459,29.4572098 15.6282634,29.4559896 L15.620942,29.4559896 C15.5618078,29.4559896 15.5159085,29.4862137 15.5146882,29.5296726 L15.5146882,29.5344597 C15.5146882,29.5935939 15.5605876,29.6153702 15.6077072,29.6347062 C15.6439386,29.6455944 15.8540057,29.7131763 15.8612332,29.8797844 L15.8612332,29.8918928 C15.8612332,29.9619152 15.8334495,30.0282769 15.7851097,30.0766167 C15.7319828,30.1297436 15.6596139,30.1587475 15.5799235,30.1587475 L15.5701617,30.1587475 C15.4676625,30.1550868 15.3782103,30.097079 15.3359716,30.0065943 C15.3311846,29.9969264 15.3299644,29.9860382 15.3299644,29.9763702 C15.3299644,29.9498068 15.3444194,29.9244636 15.3709828,29.912449 C15.3806508,29.9075681 15.3903188,29.9063479 15.3999867,29.9063479 C15.4265502,29.9063479 15.4531136,29.9208029 15.4651282,29.9474602 C15.4844641,29.9896989 15.5255764,30.0161685 15.5750426,30.0174825 L15.5811438,30.0174825 C15.6233824,30.0174825 15.6583936,30.0041539 15.683643,29.9788107 C15.7078598,29.9546877 15.7211885,29.9244636 15.7211885,29.8918928 L15.7211885,29.8870119 C15.7175278,29.8314446 15.6124943,29.7819784 15.5665949,29.7686497 L15.5618078,29.7663032 C15.4373445,29.7215301 15.3745496,29.6431539 15.3745496,29.5344597 L15.3745496,29.5247917 C15.377084,29.463311 15.4048676,29.4077436 15.4566804,29.3690718 C15.5001393,29.335187 15.5593674,29.3147247 15.6221622,29.3147247 L15.6329565,29.3147247 Z M27.3588188,29.4831116 L27.1473573,29.4831116 L27.1473573,30.1488156 L27.3588188,30.1488156 C27.364594,30.1488156 27.4501856,30.1473718 27.5359253,30.1059458 C27.6463947,30.0530804 27.7016294,29.9545686 27.7016294,29.8159636 C27.7016294,29.674471 27.6444697,29.5759592 27.528225,29.5230938 C27.4445585,29.4845554 27.3605958,29.4831116 27.3588188,29.4831116 Z M28.9636551,28.4722318 L29.4171109,29.2724203 C29.6985144,29.7855734 29.4191759,29.9120078 29.4191759,29.9120078 C29.4558766,29.9414811 29.4682666,29.9727377 29.4719273,29.9843768 C29.6076543,29.9976116 29.6926949,30.0171352 29.6928829,30.0397564 C29.6932581,30.0837785 29.3740274,30.1225442 28.9797058,30.1263927 C28.5853842,30.1301472 28.2654027,30.0975765 28.2649331,30.0534605 C28.2647457,30.0309332 28.3493169,30.00972 28.4847623,29.9939509 C28.4882352,29.9822179 28.5000621,29.9507736 28.5361058,29.9205494 C28.5361058,29.9205494 28.2543268,29.7994652 28.5258746,29.2810557 L28.5258746,29.2810557 L28.9636551,28.4722318 Z M17.159934,29.4834448 L16.9266741,29.4831116 L16.9266741,29.8159637 L17.1478263,29.8159637 C17.2585744,29.8159637 17.3294256,29.7916411 17.3713861,29.7402195 C17.4068117,29.6974608 17.4090473,29.6517033 17.4090473,29.6488157 C17.4090473,29.577403 17.3691505,29.5316456 17.2850576,29.5044354 C17.2352726,29.4884426 17.1829725,29.4844443 17.159934,29.4834448 Z M17.9955373,29.4834448 L17.7622774,29.4831116 L17.7622774,29.8159637 L17.9834296,29.8159637 C18.0941776,29.8159637 18.1650289,29.7916411 18.2069893,29.7402195 C18.2424149,29.6974608 18.2446505,29.6517033 18.2446505,29.6488157 C18.2446505,29.577403 18.2047537,29.5316456 18.1206609,29.5044354 C18.0708758,29.4884426 18.0185757,29.4844443 17.9955373,29.4834448 Z M22.1938543,24.8523951 C22.2201361,24.8523951 22.4528243,24.8568067 22.6944296,24.9753566 C23.0369385,25.1465641 23.2257923,25.4627911 23.2257923,25.87551 C23.2257923,25.9018857 23.2213807,26.1389855 23.1027369,26.3760853 C23.0105627,26.556116 22.8788719,26.6923123 22.7163937,26.7800749 L23.1862757,27.5353965 C23.2125575,27.5793247 23.2257923,27.623253 23.2257923,27.6714989 C23.2257923,27.7550377 23.1818641,27.8383887 23.1027369,27.8867285 C23.0632203,27.9130104 23.0149743,27.9262451 22.9710461,27.9262451 C22.8831896,27.9262451 22.7998386,27.8823169 22.7514988,27.8076952 L22.1850311,26.9031303 L21.7546658,26.9031303 L21.7546658,27.6714989 C21.7546658,27.812013 21.6361159,27.9262451 21.4956018,27.9262451 C21.3550878,27.9262451 21.2408556,27.812013 21.2408556,27.6714989 L21.2408556,25.1070474 C21.2408556,24.9665334 21.3550878,24.8523951 21.4956018,24.8523951 L22.1938543,24.8523951 Z M25.0353258,24.8524139 C25.1363232,24.8524139 25.232909,24.9182124 25.2724257,25.0147982 L26.2956344,27.5749319 C26.3087753,27.6057192 26.3131869,27.6408243 26.3131869,27.6715177 C26.3131869,27.8033024 26.2121895,27.9262639 26.0584407,27.9262639 C25.9574433,27.9262639 25.8608575,27.8647832 25.8213409,27.7636919 L25.6280754,27.2851745 L24.4381647,27.2851745 L24.2448992,27.7636919 C24.2053826,27.8647832 24.1087968,27.9262639 24.0077994,27.9262639 C23.8584621,27.9262639 23.7530532,27.7988908 23.7530532,27.6715177 C23.7530532,27.6364127 23.7574647,27.6057192 23.7706057,27.5749319 L24.7938144,25.0147982 C24.8332372,24.9182124 24.9299168,24.8524139 25.0353258,24.8524139 Z M29.4006284,24.8524139 C29.5498718,24.8524139 29.6596924,24.9709638 29.6596924,25.1070662 L29.6596924,27.6715177 C29.6596924,27.8120317 29.5454602,27.9262639 29.4006284,27.9262639 C29.2601144,27.9262639 29.1458822,27.8120317 29.1458822,27.6715177 L29.1458822,25.8755287 L28.456453,26.7976462 C28.408207,26.8636324 28.3290799,26.9030552 28.2500466,26.9030552 C28.1710133,26.9030552 28.09198,26.8636324 28.0437341,26.7976462 L27.354211,25.8755287 L27.354211,27.6715177 C27.354211,27.8120317 27.2400727,27.9262639 27.095147,27.9262639 C26.954633,27.9262639 26.8404008,27.8120317 26.8404008,27.6715177 L26.8404008,25.1070662 C26.8404008,24.9709638 26.9502214,24.8524139 27.0995586,24.8524139 C27.1785919,24.8524139 27.2532136,24.8875189 27.3015534,24.9533174 L28.2500466,26.2180376 L29.1986336,24.9533174 C29.2468796,24.8875189 29.3215013,24.8524139 29.4006284,24.8524139 Z M14.0250893,24.8523951 C14.83748,24.8523951 15.5005336,25.5418243 15.5005336,26.3893201 C15.5005336,27.2368159 14.83748,27.9262451 14.0250893,27.9262451 C13.2126986,27.9262451 12.5539628,27.2368159 12.5539628,26.3893201 C12.5539628,25.5418243 13.2126986,24.8523951 14.0250893,24.8523951 Z M12.0794252,24.8524045 C12.2243508,24.8524045 12.3341714,24.9709544 12.3341714,25.1070568 C12.3341714,25.1729492 12.3122073,25.2343361 12.2682791,25.2826759 L11.2538935,26.3893295 L12.2682791,27.4958892 C12.3122073,27.5442291 12.3341714,27.6101214 12.3341714,27.6715083 C12.3341714,27.8120224 12.2199392,27.9262545 12.0794252,27.9262545 C12.0092151,27.9262545 11.9433228,27.8999727 11.8906652,27.8428097 L10.801658,26.6483935 L10.801658,27.6715083 C10.801658,27.8120224 10.6830142,27.9262545 10.5425002,27.9262545 C10.4019861,27.9262545 10.287754,27.8120224 10.287754,27.6715083 L10.287754,25.1070568 C10.287754,24.9665428 10.4019861,24.8524045 10.5425002,24.8524045 C10.6830142,24.8524045 10.801658,24.9665428 10.801658,25.1070568 L10.801658,26.1301717 L11.8906652,24.9358494 C11.9389112,24.8830979 12.0092151,24.8524045 12.0794252,24.8524045 Z M16.98084,24.8523951 C17.0071218,24.8523951 17.2398101,24.8568067 17.4814154,24.9753566 C17.8239242,25.1465641 18.012778,25.4627911 18.012778,25.87551 C18.012778,25.9018857 18.0083664,26.1389855 17.8897227,26.3760853 C17.7185152,26.7142764 17.3935589,26.9031303 16.98084,26.9031303 L16.5416515,26.9031303 L16.5416515,27.6714989 C16.5416515,27.812013 16.4274193,27.9262451 16.2825876,27.9262451 C16.1420735,27.9262451 16.0278413,27.812013 16.0278413,27.6714989 L16.0278413,25.1070474 C16.0278413,24.9665334 16.1420735,24.8523951 16.2825876,24.8523951 L16.98084,24.8523951 Z M20.4589143,24.8523669 C20.5994283,24.8523669 20.7136605,24.9665053 20.7136605,25.1070193 L20.7136605,26.7714113 C20.7136605,26.8021047 20.7136605,27.0611687 20.5906051,27.3290558 C20.4105744,27.7154929 20.0681595,27.926217 19.628971,27.926217 C19.1897825,27.926217 18.8473676,27.7154929 18.6673369,27.3290558 C18.5596634,27.0946546 18.5428985,26.8670086 18.5403897,26.7931974 L18.5399638,25.1070193 C18.5399638,24.9665053 18.6541021,24.8523669 18.7946161,24.8523669 C18.935224,24.8523669 19.0492685,24.9665053 19.0492685,25.1070193 L19.0492685,26.7714113 C19.0492685,26.8372098 19.1020199,27.4125007 19.628971,27.4125007 C20.1295464,27.4125007 20.2042619,26.8724087 20.2042619,26.7714113 L20.2042619,25.1070193 C20.2042619,24.9665053 20.3184002,24.8523669 20.4589143,24.8523669 Z M14.0250893,25.3662053 C13.4981382,25.3662053 13.0677729,25.8228524 13.0677729,26.3893201 C13.0677729,26.9557878 13.4981382,27.412435 14.0250893,27.412435 C14.5563581,27.412435 14.9867234,26.9557878 14.9867234,26.3893201 C14.9867234,25.8228524 14.5563581,25.3662053 14.0250893,25.3662053 Z M25.0353258,25.7964016 L24.6444772,26.775776 L25.4217629,26.775776 L25.0353258,25.7964016 Z M22.1938543,25.3662053 L21.7546658,25.3662053 L21.7546658,26.3893201 L22.1938543,26.3893201 C22.4134016,26.3893201 22.5539156,26.3146046 22.6372666,26.1566319 C22.7075706,26.0248472 22.7119822,25.8843332 22.7119822,25.87551 C22.7119822,25.6559627 22.6329489,25.5153548 22.4660591,25.4320037 C22.3343683,25.3662053 22.1938543,25.3662053 22.1938543,25.3662053 Z M16.98084,25.3662053 L16.5416515,25.3662053 L16.5416515,26.3893201 L16.98084,26.3893201 C17.2003873,26.3893201 17.3409013,26.3146046 17.4242523,26.1566319 C17.4945563,26.0248472 17.4989679,25.8843332 17.4989679,25.87551 C17.4989679,25.6559627 17.4198407,25.5153548 17.2530449,25.4320037 C17.121354,25.3662053 16.98084,25.3662053 16.98084,25.3662053 Z M14.7922096,22.0960298 C15.2035205,22.0960298 15.5370184,22.4295277 15.5370184,22.8408386 C15.5370184,23.2522435 15.2035205,23.5857414 14.7922096,23.5857414 C14.3808986,23.5857414 14.0474007,23.2522435 14.0474007,22.8408386 C14.0474007,22.4295277 14.3808986,22.0960298 14.7922096,22.0960298 Z M16.2817428,22.0960298 C16.6931476,22.0960298 17.0266455,22.4295277 17.0266455,22.8408386 C17.0266455,23.2522435 16.6931476,23.5857414 16.2817428,23.5857414 C15.8705257,23.5857414 15.5370278,23.2522435 15.5370278,22.8408386 C15.5370278,22.4295277 15.8705257,22.0960298 16.2817428,22.0960298 Z M17.7713699,22.0960298 C18.1827747,22.0960298 18.5161787,22.4295277 18.5161787,22.8408386 C18.5161787,23.2522435 18.1827747,23.5857414 17.7713699,23.5857414 C17.3601528,23.5857414 17.0266549,23.2522435 17.0266549,22.8408386 C17.0266549,22.4295277 17.3601528,22.0960298 17.7713699,22.0960298 Z M19.2609969,22.0960298 C19.6723079,22.0960298 20.0058058,22.4295277 20.0058058,22.8408386 C20.0058058,23.2522435 19.6723079,23.5857414 19.2609969,23.5857414 C18.849686,23.5857414 18.5161881,23.2522435 18.5161881,22.8408386 C18.5161881,22.4295277 18.849686,22.0960298 19.2609969,22.0960298 Z M20.7506334,22.0960298 C21.1619444,22.0960298 21.4954423,22.4295277 21.4954423,22.8408386 C21.4954423,23.2522435 21.1619444,23.5857414 20.7506334,23.5857414 C20.3393225,23.5857414 20.0058246,23.2522435 20.0058246,22.8408386 C20.0058246,22.4295277 20.3393225,22.0960298 20.7506334,22.0960298 Z M22.2401666,22.0960298 C22.6515714,22.0960298 22.9850693,22.4295277 22.9850693,22.8408386 C22.9850693,23.2522435 22.6515714,23.5857414 22.2401666,23.5857414 C21.8289495,23.5857414 21.4954516,23.2522435 21.4954516,22.8408386 C21.4954516,22.4295277 21.8289495,22.0960298 22.2401666,22.0960298 Z M23.7297937,22.0960298 C24.1411985,22.0960298 24.4746026,22.4295277 24.4746026,22.8408386 C24.4746026,23.2522435 24.1411985,23.5857414 23.7297937,23.5857414 C23.3185766,23.5857414 22.9850787,23.2522435 22.9850787,22.8408386 C22.9850787,22.4295277 23.3185766,22.0960298 23.7297937,22.0960298 Z M25.2194208,22.0960298 C25.6307317,22.0960298 25.9642296,22.4295277 25.9642296,22.8408386 C25.9642296,23.2522435 25.6307317,23.5857414 25.2194208,23.5857414 C24.8081099,23.5857414 24.474612,23.2522435 24.474612,22.8408386 C24.474612,22.4295277 24.8081099,22.0960298 25.2194208,22.0960298 Z M24.7345019,20.2421081 C25.1721886,20.2421081 25.5269935,20.5969131 25.5269935,21.0345997 C25.5269935,21.4722864 25.1721886,21.8270914 24.7345019,21.8270914 C24.2967214,21.8270914 23.9418225,21.4722864 23.9418225,21.0345997 C23.9418225,20.5969131 24.2967214,20.2421081 24.7345019,20.2421081 Z M15.2236449,20.2421081 C15.6614254,20.2421081 16.0162304,20.5969131 16.0162304,21.0345997 C16.0162304,21.4722864 15.6614254,21.8270914 15.2236449,21.8270914 C14.7859582,21.8270914 14.4310594,21.4722864 14.4310594,21.0345997 C14.4310594,20.5969131 14.7859582,20.2421081 15.2236449,20.2421081 Z M16.8087877,20.2421081 C17.2464744,20.2421081 17.6013732,20.5969131 17.6013732,21.0345997 C17.6013732,21.4722864 17.2464744,21.8270914 16.8087877,21.8270914 C16.3711011,21.8270914 16.0162022,21.4722864 16.0162022,21.0345997 C16.0162022,20.5969131 16.3711011,20.2421081 16.8087877,20.2421081 Z M18.3939306,20.2421081 C18.8316172,20.2421081 19.1865161,20.5969131 19.1865161,21.0345997 C19.1865161,21.4722864 18.8316172,21.8270914 18.3939306,21.8270914 C17.9562439,21.8270914 17.6013451,21.4722864 17.6013451,21.0345997 C17.6013451,20.5969131 17.9562439,20.2421081 18.3939306,20.2421081 Z M19.9790734,20.2421081 C20.4167601,20.2421081 20.771565,20.5969131 20.771565,21.0345997 C20.771565,21.4722864 20.4167601,21.8270914 19.9790734,21.8270914 C19.5413867,21.8270914 19.1864879,21.4722864 19.1864879,21.0345997 C19.1864879,20.5969131 19.5413867,20.2421081 19.9790734,20.2421081 Z M21.5642162,20.2421081 C22.0019029,20.2421081 22.3567079,20.5969131 22.3567079,21.0345997 C22.3567079,21.4722864 22.0019029,21.8270914 21.5642162,21.8270914 C21.1265296,21.8270914 20.7715369,21.4722864 20.7715369,21.0345997 C20.7715369,20.5969131 21.1265296,20.2421081 21.5642162,20.2421081 Z M23.1493591,20.2421081 C23.5870457,20.2421081 23.9418507,20.5969131 23.9418507,21.0345997 C23.9418507,21.4722864 23.5870457,21.8270914 23.1493591,21.8270914 C22.7115785,21.8270914 22.3566797,21.4722864 22.3566797,21.0345997 C22.3566797,20.5969131 22.7115785,20.2421081 23.1493591,20.2421081 Z M19.8581112,16.7564402 C20.7530082,16.7564402 21.4784811,17.4819132 21.4784811,18.3768101 C21.4784811,19.2717071 20.7530082,19.99718 19.8581112,19.99718 C18.9632142,19.99718 18.2377413,19.2717071 18.2377413,18.3768101 C18.2377413,17.4819132 18.9632142,16.7564402 19.8581112,16.7564402 Z M17.0048691,18.4981197 C17.4121439,18.4981197 17.7423566,18.8282385 17.7423566,19.2356071 C17.7423566,19.6429758 17.4121439,19.9730946 17.0048691,19.9730946 C16.5975004,19.9730946 16.2672878,19.6429758 16.2672878,19.2356071 C16.2672878,18.8282385 16.5975004,18.4981197 17.0048691,18.4981197 Z M22.9051725,18.4981197 C23.3124473,18.4981197 23.6427539,18.8282385 23.6427539,19.2356071 C23.6427539,19.6429758 23.3124473,19.9730946 22.9051725,19.9730946 C22.4978977,19.9730946 22.1675912,19.6429758 22.1675912,19.2356071 C22.1675912,18.8282385 22.4978977,18.4981197 22.9051725,18.4981197 Z M24.3803164,18.4981197 C24.7875912,18.4981197 25.1178039,18.8282385 25.1178039,19.2356071 C25.1178039,19.6429758 24.7875912,19.9730946 24.3803164,19.9730946 C23.9729478,19.9730946 23.6427351,19.6429758 23.6427351,19.2356071 C23.6427351,18.8282385 23.9729478,18.4981197 24.3803164,18.4981197 Z M15.5298097,18.4981197 C15.9370845,18.4981197 16.2672972,18.8282385 16.2672972,19.2356071 C16.2672972,19.6429758 15.9370845,19.9730946 15.5298097,19.9730946 C15.122441,19.9730946 14.7922283,19.6429758 14.7922283,19.2356071 C14.7922283,18.8282385 15.122441,18.4981197 15.5298097,18.4981197 Z M20.0667797,17.820705 C20.0618049,17.8214559 20.0542958,17.8245534 20.0523247,17.83516 C20.0666858,17.8605971 20.0786065,17.8874421 20.0884622,17.9152258 C20.0998197,17.948172 20.1079859,17.9824322 20.1125852,18.0172557 C20.1176538,18.0518914 20.1193434,18.0883105 20.1133361,18.1248235 C20.1103325,18.1429392 20.1050761,18.1612427 20.0973793,18.1786075 L20.0837573,18.2037629 L20.0837573,18.2037629 L20.0664042,18.2266657 L20.0457542,18.2464709 L20.0223821,18.2632726 C20.0057682,18.2730344 19.9876525,18.280168 19.9689737,18.2841103 C19.9310527,18.2921826 19.8931317,18.2873955 19.8588715,18.2764135 C19.8241419,18.265713 19.793073,18.2488175 19.763412,18.2304202 C19.7356284,18.2123045 19.7095343,18.1917484 19.6868192,18.1680009 C19.6492737,18.1671561 19.2505405,18.1598347 19.0583076,18.2144634 C19.0583076,18.2144634 18.8305941,18.2403698 18.7093221,18.4448989 C18.7093221,18.4448989 18.6972137,18.4665814 18.6839789,18.5026251 C18.663235,18.5260911 18.5108942,18.7084683 18.5793995,18.9656801 C18.5881011,18.9912956 18.6231882,19.0706306 18.7309739,19.1004947 L18.8047396,19.1116511 L18.8977179,19.1056564 C18.9028692,19.1161186 18.9116924,19.1262559 18.9260535,19.1334834 C18.9260535,19.1334834 19.0624376,19.1961844 19.3352056,19.1334834 C19.3352056,19.1334834 19.350787,19.1249418 19.3665561,19.1394907 C19.3665561,19.1394907 19.6256201,19.1935562 19.7332818,19.1430575 C19.7332818,19.1430575 19.7679175,19.1349852 19.6975197,19.0398074 C19.6803426,19.0532299 19.658754,19.0605512 19.6374469,19.0649628 L19.6194485,19.0674854 L19.6194485,19.0674854 L19.6013094,19.0685297 L19.5831937,19.0679665 L19.5742766,19.0671217 L19.569865,19.0666759 C19.5438647,19.0649628 19.520962,19.0645874 19.4984347,19.0650567 C19.4756258,19.0653383 19.4531924,19.0672156 19.4295387,19.069656 L19.4618865,19.0547082 L19.4618865,19.0547082 L19.4965574,19.0458146 L19.5319675,19.0416964 L19.573643,19.0424355 L19.5852587,19.0438435 L19.6018725,19.0452514 L19.6184982,19.045885 L19.6351942,19.0458146 L19.6653244,19.043339 L19.6653244,19.043339 L19.6951731,19.0367098 C19.687251,19.0124142 19.6653995,18.9698225 19.5954898,18.9752291 C19.5954898,18.9752291 19.5188996,18.9601066 19.4184089,18.9827143 L19.3556679,19.0012294 L19.1196945,19.0162476 L19.1347127,19.0025434 C19.1765567,19.0006777 19.2983306,18.9861843 19.3750039,18.8649392 L19.3895175,18.8252935 L19.3895175,18.8252935 L19.4032568,18.7868445 L19.4100972,18.7669572 L19.4281307,18.7070604 L19.4387491,18.6667224 L19.4483114,18.6256805 L19.466521,18.5410154 L19.4773388,18.5845682 L19.4801313,18.6292473 C19.4799435,18.659096 19.4755319,18.6890385 19.4676474,18.7178547 L19.4609361,18.7394434 L19.4609361,18.7394434 L19.4530985,18.7604688 L19.4433367,18.7809311 L19.4409431,18.7859411 L19.4324485,18.8005487 L19.4105078,18.8319578 L19.3839209,18.8594951 C19.4073868,18.8763906 19.536825,18.9628391 19.7364732,18.9610557 C19.7412602,18.9983196 19.7464227,19.0275112 19.7514914,19.0503201 C19.7638814,19.0419662 19.7787118,19.0368037 19.7935423,19.0338001 C19.8149432,19.0299517 19.8374705,19.031078 19.8583083,19.0362405 C19.8780197,19.0410276 19.8977311,19.0461901 19.9172547,19.0515403 L19.9318623,19.0555765 L19.9318623,19.0555765 L19.9465402,19.059331 L19.9661577,19.063461 L19.9729746,19.0287666 L19.9770459,18.9970993 C19.9973205,19.0158721 20.016281,19.0417785 20.0318624,19.0775406 C20.0346783,19.0840172 20.0378697,19.0904938 20.0446278,19.0935913 C20.0630251,19.1022267 20.0729747,19.0727535 20.0822672,19.060739 C20.094094,19.0452514 20.1040436,19.0282621 20.1133361,19.011085 C20.1199066,18.9989766 20.1261016,18.9867743 20.1319211,18.9743843 C20.1374591,18.9628391 20.1550116,18.9560809 20.1575459,18.9431277 C20.1600803,18.9294236 20.1544484,18.9157195 20.1513509,18.9024847 C20.1447805,18.8739501 20.1351125,18.8462603 20.1233795,18.8195091 L20.0941644,18.7594833 L20.0941644,18.7594833 L20.0622742,18.6994574 C20.0572994,18.6896017 20.0512922,18.6780565 20.0469744,18.6665112 C20.0447217,18.6606917 20.0425628,18.6548721 20.0408733,18.6489587 C20.0391837,18.6430453 20.0374003,18.6371319 20.0363678,18.6311246 C20.0310176,18.6072832 20.0289526,18.5831602 20.0292342,18.5594127 L20.0353001,18.4895546 L20.0353001,18.4895546 L20.0496026,18.4215268 L20.0612417,18.5576293 L20.066369,18.5902 L20.066369,18.5902 L20.0738195,18.6216444 L20.0787004,18.6367564 L20.0842383,18.6513992 L20.0985995,18.6804969 C20.1197188,18.7208583 20.1405566,18.763097 20.1536975,18.8087148 C20.1656182,18.8494517 20.1700298,18.893286 20.1627084,18.93468 C20.1756616,18.9221961 20.2203408,18.9068024 20.3741835,18.9548607 C20.3851655,18.9583336 20.3961476,18.9596477 20.4073174,18.9557054 C20.4187687,18.951857 20.4301263,18.9464129 20.4393249,18.9383406 C20.4489929,18.9298929 20.4541554,18.9183477 20.4597872,18.907084 L20.4716844,18.8865044 L20.4716844,18.8865044 L20.4848488,18.8666287 L20.5309359,18.7982021 L20.5751457,18.7301508 L20.5946459,18.6948581 L20.6097815,18.6559046 C20.6148501,18.6698903 20.6154133,18.685284 20.6140992,18.7001144 C20.6125974,18.7149449 20.6090306,18.7294938 20.6043374,18.7435734 C20.594951,18.7715448 20.5854708,18.7994223 20.5692323,18.8231698 C20.5529939,18.8471051 20.5370371,18.8696324 20.5165748,18.8895315 C20.499867,18.9056761 20.4820329,18.9206943 20.4622277,18.9335536 C20.4886972,18.9351493 20.5151668,18.9374959 20.5414487,18.9412504 C20.5767414,18.9464129 20.6132544,18.9534527 20.6458252,18.9688464 C20.6539913,18.9726948 20.6635654,18.9772941 20.6703236,18.9833014 C20.6735775,18.9862216 20.668488,18.988122 20.6617134,18.9893406 L20.6511198,18.9906992 L20.6075874,18.9914089 L20.5738317,18.9902473 L20.4481481,18.9817996 L20.4265008,18.9796994 L20.4050646,18.97598 C20.3895771,18.9723193 20.3739957,18.9687525 20.3584144,18.9653734 C20.3239664,18.9579582 20.2893306,18.9510122 20.2543195,18.9465068 C20.2395828,18.9446295 20.2261603,18.9435031 20.2156476,18.943597 C20.2156476,18.943597 20.0397469,19.0652444 20.0909965,19.1491586 C20.0909965,19.1491586 20.0941879,19.1521623 20.1027295,19.1554475 C20.1230979,19.1631443 20.1743475,19.1729061 20.2872656,19.1491586 C20.2872656,19.1491586 20.3127966,19.1348913 20.3844146,19.1398661 C20.4631663,19.1454979 20.5030584,19.1256927 20.537788,19.1236277 C20.5725176,19.1215627 20.5910087,19.1215627 20.6217022,19.1245663 C20.6523018,19.1276638 20.8902464,19.1753466 20.8541088,19.0258217 C20.8554229,19.0259155 20.8688454,19.0263848 20.8860225,19.0277928 C20.9189687,19.030421 20.942153,19.0415908 20.9709692,19.0198144 C20.9943413,19.0022619 21.0113306,18.9752291 21.0255979,18.9499797 L21.0544493,18.8808843 L21.0544493,18.8808843 L21.0699954,18.8074946 L21.0755921,18.7428459 L21.0753179,18.6307491 C21.0744881,18.6133391 21.0723297,18.5957252 21.068554,18.583173 L21.0616416,18.5687991 L21.0270997,18.5766836 L21.0057926,18.5813768 L20.9406512,18.5899184 L20.9187575,18.5911269 L20.896723,18.5919834 L20.874665,18.5924527 L20.8306429,18.5900005 L20.8306429,18.5900005 L20.8085849,18.5883227 L20.7648444,18.5816584 L20.7538623,18.5799688 L20.743068,18.5772468 L20.7214793,18.5720843 L20.6368377,18.5449342 L20.5565607,18.5066613 C20.5048418,18.4776574 20.4565958,18.4426462 20.4121044,18.4036927 C20.3683639,18.3638006 20.3281902,18.3203417 20.291865,18.2741608 C20.2559151,18.2276043 20.2228751,18.1789829 20.1940589,18.1280149 C20.165055,18.0773285 20.1397118,18.024577 20.1174661,17.9706993 C20.0976609,17.9216085 20.0797329,17.8718607 20.0667797,17.820705 Z M20.2228939,17.2906564 L20.2350962,17.3786067 L20.226468,17.3744034 C20.2097881,17.3669148 20.1706822,17.3523249 20.1247124,17.3554224 C20.1247124,17.3554224 20.1421335,17.456585 20.1930752,17.5229053 L20.2378182,17.5639876 L20.2296521,17.602284 L20.2124187,17.6007454 C20.1700974,17.5974444 20.06494,17.5923533 20.0713978,17.6239666 C20.0713978,17.6239666 20.0792673,17.6658373 20.1186991,17.703539 L20.1545611,17.7303142 L20.1519329,17.7440183 C20.1733338,17.7770583 20.1963304,17.8090659 20.2205473,17.8398532 C20.2482371,17.8757091 20.2777103,17.9100633 20.3080283,17.9433849 L20.3764801,18.0130803 L20.3764801,18.0130803 L20.4491335,18.0778595 L20.449754,18.0704841 L20.4497087,18.090187 L20.4397413,18.1194402 L20.381518,18.0712801 C20.3171774,18.0095647 20.2608679,17.9393781 20.2129769,17.8638178 L20.1475025,17.7468342 C20.1479718,17.7477728 20.1350186,17.7572531 20.1339861,17.7587549 C20.1293868,17.7649499 20.1323904,17.7669211 20.1362389,17.7737731 C20.1422461,17.7842858 20.1481596,17.7948924 20.1541668,17.8054052 C20.1663691,17.8264307 20.1789469,17.8473623 20.1919001,17.8680123 C20.2176187,17.9092185 20.2449331,17.949486 20.2742186,17.9883456 L20.3455289,18.0755101 L20.3455289,18.0755101 L20.4245116,18.1556874 L20.4202764,18.1652556 L20.4133724,18.1941786 L20.4137413,18.1984402 L20.3749858,18.1633838 C20.3518258,18.1399179 20.3298895,18.1153151 20.3092221,18.0897425 L20.2510718,18.0102816 L20.2121887,17.9477801 L20.2121887,17.9477801 L20.1773887,17.8830962 L20.1509895,17.8256516 L20.1277179,17.7676564 L20.1273593,17.7698965 L20.1185744,17.7723752 L20.1025098,17.78059 L20.0946009,17.7957091 C20.1152509,17.8402943 20.1396555,17.8829085 20.1656558,17.9243963 C20.1933456,17.9692631 20.2231942,18.0125343 20.2544509,18.0544914 C20.2861768,18.0962608 20.319123,18.1369038 20.3549789,18.174637 L20.394394,18.2152628 L20.394394,18.2152628 L20.4354995,18.2539169 L20.424754,18.2324841 L20.4420537,18.2634814 C20.4555613,18.2835434 20.4726191,18.3004008 20.4916704,18.3136024 C20.5082449,18.3251762 20.5264576,18.3337779 20.5456799,18.3397488 L20.5702605,18.3555599 L20.5702605,18.3555599 L20.5952701,18.3706245 L20.6290611,18.3896789 L20.6638845,18.4066682 L20.6816952,18.4145058 L20.7175746,18.4292894 L20.735878,18.4355782 L20.8124357,18.4575072 L20.8907532,18.4719035 C20.9173167,18.4755642 20.9440678,18.4778169 20.970819,18.4789433 C20.9842415,18.4795065 20.997664,18.4796942 21.0111804,18.4796942 C21.0494768,18.4796003 20.9940972,18.4315421 20.9899672,18.4209355 C20.9880899,18.4160546 20.985274,18.3806679 20.9780465,18.3818882 C20.9194755,18.3913997 20.8589021,18.3932353 20.7991074,18.3859765 L20.7103471,18.3680902 L20.6588235,18.3517519 L20.677771,18.3504318 L20.677771,18.3504318 L20.6969621,18.3486375 L20.7410821,18.3442763 C20.8166567,18.3684986 20.8956403,18.3803112 20.9750992,18.3760029 C20.9781714,18.3639144 20.9805783,18.3516357 20.9821847,18.3392684 L20.9817413,18.3384402 L21.0425109,18.3490754 L21.1532942,18.3696585 C21.2233907,18.3771225 21.2941279,18.3791028 21.3635837,18.3612806 C21.3887005,18.3136024 21.4070256,18.2423137 21.4116389,18.1375132 C21.4116389,18.1375132 21.4321424,17.9472575 21.3242425,17.9183155 C21.3242425,17.9183155 21.0025931,17.7880765 20.8662445,17.5266844 C20.8662445,17.5266844 20.8308759,17.4706283 20.7433514,17.4426003 C20.7433514,17.4426003 20.7374464,17.3845944 20.6768871,17.3761323 L20.6204583,17.3807558 L20.5854741,17.3851732 L20.5665724,17.506901 L20.5342152,17.6255442 C20.5193501,17.6683479 20.5014095,17.7094761 20.4797527,17.7487763 L20.4629654,17.777109 L20.4629654,17.777109 C20.4579676,17.7850299 20.4537388,17.7935602 20.4500225,17.8025475 L20.440844,17.8306517 L20.440844,17.8306517 L20.4350293,17.8601268 L20.4326426,17.9215144 C20.4337478,17.9420403 20.4366952,17.9624902 20.4407179,17.9826564 L20.4397413,17.9814402 L20.4306495,17.9753924 L20.4130618,17.9594356 C20.4019859,17.9478904 20.3927873,17.9347494 20.3857475,17.9202944 L20.3769243,17.8979548 L20.3769243,17.8979548 L20.375223,17.8915721 L20.3737095,17.8761785 L20.3782706,17.8553876 L20.3782706,17.8553876 L20.3838702,17.842763 C20.3877186,17.8357232 20.3917548,17.8299036 20.3949461,17.8244595 C20.3981375,17.8190154 20.4006718,17.8140407 20.4024552,17.8093475 C20.4040509,17.8043727 20.4050834,17.7993979 20.4052711,17.7943293 C20.4057405,17.7843797 20.4024552,17.7722713 20.3990761,17.7580979 C20.3919425,17.7287185 20.3912854,17.6975557 20.3979498,17.6678948 C20.401235,17.6529705 20.4066791,17.6383277 20.4141882,17.6248113 C20.4179427,17.6180531 20.4223543,17.6114827 20.4272353,17.6054754 L20.4338996,17.5974149 C20.4567085,17.5684931 20.4711635,17.5453087 20.4836474,17.5210919 C20.5072072,17.4761312 20.5242904,17.4274159 20.5379945,17.3776681 C20.533489,17.3649965 20.5152795,17.3238842 20.4655317,17.3308301 C20.4655317,17.3308301 20.4375603,17.3314871 20.417755,17.3690326 C20.417755,17.3690326 20.2595946,17.2906564 20.2228939,17.2906564 Z M15.8794146,16.6521858 C16.3148485,16.6521858 16.6679639,17.0052073 16.6679639,17.4407351 C16.6679639,17.8762629 16.3148485,18.2292845 15.8794146,18.2292845 C15.4438868,18.2292845 15.0907714,17.8762629 15.0907714,17.4407351 C15.0907714,17.0052073 15.4438868,16.6521858 15.8794146,16.6521858 Z M23.8427118,16.6521858 C24.2781457,16.6521858 24.6311673,17.0052073 24.6311673,17.4407351 C24.6311673,17.8762629 24.2781457,18.2292845 23.8427118,18.2292845 C23.4070901,18.2292845 23.0540686,17.8762629 23.0540686,17.4407351 C23.0540686,17.0052073 23.4070901,16.6521858 23.8427118,16.6521858 Z M22.2500505,16.6521858 C22.6854844,16.6521858 23.038506,17.0052073 23.038506,17.4407351 C23.038506,17.8762629 22.6854844,18.2292845 22.2500505,18.2292845 C21.8145227,18.2292845 21.4614073,17.8762629 21.4614073,17.4407351 C21.4614073,17.0052073 21.8145227,16.6521858 22.2500505,16.6521858 Z M17.4720759,16.6521858 C17.9075098,16.6521858 18.2606253,17.0052073 18.2606253,17.4407351 C18.2606253,17.8762629 17.9075098,18.2292845 17.4720759,18.2292845 C17.0365481,18.2292845 16.6834327,17.8762629 16.6834327,17.4407351 C16.6834327,17.0052073 17.0365481,16.6521858 17.4720759,16.6521858 Z M21.5855421,14.669821 C22.0586154,14.669821 22.4422365,15.0534421 22.4422365,15.5266093 C22.4422365,15.9996825 22.0586154,16.3833037 21.5855421,16.3833037 C21.1150962,16.3833037 20.7331693,16.0040825 20.7287918,15.5347626 C20.7287632,15.9996825 20.3452359,16.3833037 19.8720687,16.3833037 C19.3989016,16.3833037 19.0153743,15.9996825 19.0153743,15.5266093 C19.0153743,15.0534421 19.3989016,14.669821 19.8720687,14.669821 C20.3425398,14.669821 20.7243896,15.0490828 20.7287259,15.5185297 C20.7287538,15.0534421 21.1123749,14.669821 21.5855421,14.669821 Z M16.4452159,14.669821 C16.918383,14.669821 17.3019103,15.0534421 17.3019103,15.5266093 C17.3019103,15.9996825 16.918383,16.3833037 16.4452159,16.3833037 C15.9720487,16.3833037 15.5885214,15.9996825 15.5885214,15.5266093 C15.5885214,15.0534421 15.9720487,14.669821 16.4452159,14.669821 Z M23.2989216,14.669821 C23.7720887,14.669821 24.155616,15.0534421 24.155616,15.5266093 C24.155616,15.9996825 23.7720887,16.3833037 23.2989216,16.3833037 C22.8257544,16.3833037 22.4422271,15.9996825 22.4422271,15.5266093 C22.4422271,15.0534421 22.8257544,14.669821 23.2989216,14.669821 Z M18.1586892,14.669821 C18.6317625,14.669821 19.0153837,15.0534421 19.0153837,15.5266093 C19.0153837,15.9996825 18.6317625,16.3833037 18.1586892,16.3833037 C17.6855221,16.3833037 17.3019009,15.9996825 17.3019009,15.5266093 C17.3019009,15.0534421 17.6855221,14.669821 18.1586892,14.669821 Z M16.8979114,12.4971755 C17.4215772,12.4971755 17.8460291,12.9217213 17.8460291,13.4453871 C17.8460291,13.9689591 17.4215772,14.3935048 16.8979114,14.3935048 C16.3742455,14.3935048 15.9497936,13.9689591 15.9497936,13.4453871 C15.9497936,12.9217213 16.3742455,12.4971755 16.8979114,12.4971755 Z M18.7940623,12.4971755 C19.3177282,12.4971755 19.7421801,12.9217213 19.7421801,13.4453871 C19.7421801,13.9689591 19.3177282,14.3935048 18.7940623,14.3935048 C18.2703965,14.3935048 17.8460385,13.9689591 17.8460385,13.4453871 C17.8460385,12.9217213 18.2703965,12.4971755 18.7940623,12.4971755 Z M20.6902227,12.4971755 C21.2138886,12.4971755 21.6383404,12.9217213 21.6383404,13.4453871 C21.6383404,13.9689591 21.2138886,14.3935048 20.6902227,14.3935048 C20.1666507,14.3935048 19.7421988,13.9689591 19.7421988,13.4453871 C19.7421988,12.9217213 20.1666507,12.4971755 20.6902227,12.4971755 Z M22.5863831,12.4971755 C23.1100489,12.4971755 23.5345008,12.9217213 23.5345008,13.4453871 C23.5345008,13.9689591 23.1100489,14.3935048 22.5863831,14.3935048 C22.0628111,14.3935048 21.6383592,13.9689591 21.6383592,13.4453871 C21.6383592,12.9217213 22.0628111,12.4971755 22.5863831,12.4971755 Z M18.855055,10.3773003 C19.3584463,10.3773003 19.7666597,10.7855137 19.7666597,11.288905 C19.7666597,11.7923902 19.3584463,12.2005098 18.855055,12.2005098 C18.3515699,12.2005098 17.9434503,11.7923902 17.9434503,11.288905 C17.9434503,10.7855137 18.3515699,10.3773003 18.855055,10.3773003 Z M17.0318643,10.3773003 C17.5352556,10.3773003 17.943469,10.7855137 17.943469,11.288905 C17.943469,11.7923902 17.5352556,12.2005098 17.0318643,12.2005098 C16.5283792,12.2005098 16.1202596,11.7923902 16.1202596,11.288905 C16.1202596,10.7855137 16.5283792,10.3773003 17.0318643,10.3773003 Z M22.5013519,10.3773003 C23.0048371,10.3773003 23.4129566,10.7855137 23.4129566,11.288905 C23.4129566,11.7923902 23.0048371,12.2005098 22.5013519,12.2005098 C22.0006743,12.2005098 21.5941512,11.7967785 21.5897827,11.2970393 C21.5897566,11.7923902 21.181637,12.2005098 20.6782457,12.2005098 C20.1747605,12.2005098 19.766641,11.7923902 19.766641,11.288905 C19.766641,10.7855137 20.1747605,10.3773003 20.6782457,10.3773003 C21.1789233,10.3773003 21.5853536,10.7811244 21.589721,11.2807723 C21.5897472,10.7855137 21.9979606,10.3773003 22.5013519,10.3773003 Z M16.8052397,9.33248414 C16.9442519,9.33248414 17.0569823,9.4452145 17.0569823,9.58422671 C17.0569823,9.67488685 17.0090346,9.75436851 16.9371191,9.79869176 L16.9361608,10.0584264 L16.6743748,10.0584264 L16.6733864,9.79869176 C16.6014987,9.75436851 16.553591,9.67488685 16.553591,9.58422671 C16.553591,9.4452145 16.6662275,9.33248414 16.8052397,9.33248414 Z M17.5413943,9.33248414 C17.6805004,9.33248414 17.7931369,9.4452145 17.7931369,9.58422671 C17.7931369,9.67507056 17.7450347,9.75469058 17.6728779,9.79896077 L17.6723342,10.0584264 L17.4105482,10.0584264 L17.4095827,9.79869176 C17.3376933,9.75436851 17.2897456,9.67488685 17.2897456,9.58422671 C17.2897456,9.4452145 17.4024759,9.33248414 17.5413943,9.33248414 Z M18.2776334,9.33248414 C18.4166456,9.33248414 18.529376,9.4452145 18.529376,9.58422671 C18.529376,9.67507056 18.4812337,9.75469058 18.4090753,9.79896077 L18.4085076,10.0584264 L18.1468155,10.0584264 L18.1462174,9.79896077 C18.0740868,9.75469058 18.0259847,9.67507056 18.0259847,9.58422671 C18.0259847,9.4452145 18.1386212,9.33248414 18.2776334,9.33248414 Z M19.013788,9.33248414 C19.1528941,9.33248414 19.2655306,9.4452145 19.2655306,9.58422671 C19.2655306,9.67507056 19.2174284,9.75469058 19.1452716,9.79896077 L19.144681,10.0584264 L18.882895,10.0584264 L18.8823721,9.79896077 C18.8102414,9.75469058 18.7621393,9.67507056 18.7621393,9.58422671 C18.7621393,9.4452145 18.8747758,9.33248414 19.013788,9.33248414 Z M19.7499426,9.33248414 C19.8890487,9.33248414 20.0016852,9.4452145 20.0016852,9.58422671 C20.0016852,9.67464803 19.9540295,9.75394968 19.8824315,9.79834076 L19.8808544,10.0584264 L19.6191622,10.0584264 L19.6185683,9.79896077 C19.5464361,9.75469058 19.4982939,9.67507056 19.4982939,9.58422671 C19.4982939,9.4452145 19.6110243,9.33248414 19.7499426,9.33248414 Z M20.4861817,9.33248414 C20.6251939,9.33248414 20.7379243,9.4452145 20.7379243,9.58422671 C20.7379243,9.67488685 20.6899766,9.75436851 20.6180611,9.79869176 L20.6171216,10.0584264 L20.3553356,10.0584264 L20.3543284,9.79869176 C20.2824408,9.75436851 20.234533,9.67488685 20.234533,9.58422671 C20.234533,9.4452145 20.3471695,9.33248414 20.4861817,9.33248414 Z M21.2223363,9.33248414 C21.3614424,9.33248414 21.4740789,9.4452145 21.4740789,9.58422671 C21.4740789,9.67507056 21.4259767,9.75469058 21.3538199,9.79896077 L21.353295,10.0584264 L21.091509,10.0584264 L21.0905247,9.79869176 C21.0186353,9.75436851 20.9706876,9.67488685 20.9706876,9.58422671 C20.9706876,9.4452145 21.083418,9.33248414 21.2223363,9.33248414 Z M21.9585848,9.33248414 C22.097597,9.33248414 22.2103273,9.4452145 22.2103273,9.58422671 C22.2103273,9.67507056 22.1621851,9.75469058 22.0900267,9.79896077 L22.0893745,10.0584264 L21.8276824,10.0584264 L21.8261375,9.79834076 C21.7545376,9.75394968 21.7068422,9.67464803 21.7068422,9.58422671 C21.7068422,9.4452145 21.8195726,9.33248414 21.9585848,9.33248414 Z M22.69473,9.33248414 C22.8338361,9.33248414 22.9464726,9.4452145 22.9464726,9.58422671 C22.9464726,9.67507056 22.8983704,9.75469058 22.8262136,9.79896077 L22.8256418,10.0584264 L22.5638558,10.0584264 L22.5633141,9.79896077 C22.4911834,9.75469058 22.4430813,9.67507056 22.4430813,9.58422671 C22.4430813,9.4452145 22.5557178,9.33248414 22.69473,9.33248414 Z" id="Combined-Shape" fill="#20222D"></path>
                </g>
            </g>
        </g>
    </g>
</svg>