<?xml version="1.0" encoding="UTF-8"?>
<svg width="165px" height="22px" viewBox="0 0 165 22" version="1.1" xmlns="http://www.w3.org/2000/svg" xmlns:xlink="http://www.w3.org/1999/xlink">
    <!-- Generator: sketchtool 61.2 (101010) - https://sketch.com -->
    <title>0BED936B-7734-4167-9A60-1918DAB7E6CC</title>
    <desc>Created with sketchtool.</desc>
    <g id="Page-1" stroke="none" stroke-width="1" fill="none" fill-rule="evenodd">
        <g id="Contact-Us" transform="translate(-90.000000, -4686.000000)" fill="#FFFFFF" fill-rule="nonzero">
            <g id="Group-19" transform="translate(0.000000, 4612.000000)">
                <path d="M127.795426,78.8588579 C129.14195,78.8588579 130.175872,79.1834614 130.897224,79.8326782 C131.618576,80.4818949 131.979246,81.4717352 131.979246,82.8022287 C131.979246,83.3953403 131.907112,84.0525622 131.762842,84.7739141 C131.330031,86.8097295 130.564608,88.3125235 129.46655,89.2823411 C128.368492,90.2521587 126.905772,90.7370602 125.078347,90.7370602 C123.795944,90.7370602 122.770037,90.4485237 122.000595,89.8714422 L120.774303,95.6903186 L117.528235,95.6903186 L121.038797,79.0993074 L123.852055,79.0993074 L123.803965,80.1572849 C124.397077,79.7244737 125.014224,79.3998702 125.655426,79.1834647 C126.296628,78.9670591 127.009954,78.8588579 127.795426,78.8588579 Z M251.490534,78.8588579 C252.147766,78.8588579 252.784951,78.9069473 253.402107,79.0031276 C254.019264,79.0993079 254.54424,79.2275463 254.977051,79.3878467 L254.399973,82.0568355 C254.031282,81.8644749 253.57844,81.7121918 253.041433,81.5999815 C252.504427,81.4877712 251.987466,81.4316669 251.490534,81.4316669 C250.673002,81.4316669 250.059862,81.4957861 249.651096,81.6240265 C249.24233,81.7522668 249.03795,81.9927138 249.03795,82.3453748 C249.03795,82.5697954 249.162181,82.7461232 249.410647,82.8743635 C249.659112,83.0026039 250.111954,83.1709168 250.769186,83.3793074 C250.977577,83.4273975 251.218024,83.4995316 251.490534,83.5957119 C252.516457,83.9483728 253.245813,84.3370955 253.678624,84.7618916 C254.111435,85.1866878 254.327838,85.7196787 254.327838,86.3608804 C254.327838,86.6654512 254.295778,86.9700175 254.231658,87.2745883 C253.991207,88.4447814 253.410127,89.3143982 252.4884,89.8834647 C251.566672,90.4525312 250.216161,90.7370602 248.436827,90.7370602 C247.603264,90.7370602 246.817804,90.6809559 246.080422,90.5687456 C245.34304,90.4565353 244.749937,90.3042522 244.301096,90.1118916 L244.878175,87.4188579 C245.359076,87.6432785 245.940156,87.8155989 246.621433,87.9358242 C247.30271,88.0560495 247.955925,88.1161613 248.581096,88.1161613 C249.414658,88.1161613 249.999746,88.0640644 250.336377,87.9598692 C250.673008,87.8556739 250.873381,87.643279 250.937501,87.3226782 C250.985591,87.0341374 250.881397,86.8097202 250.624916,86.6494197 C250.368436,86.4891193 249.863497,86.2807319 249.110085,86.0242512 C248.997875,85.9761611 248.873644,85.9320791 248.737388,85.892004 C248.601133,85.8519289 248.444842,85.799832 248.268512,85.7357119 C247.38686,85.415111 246.729638,85.0464256 246.296827,84.6296444 C245.864015,84.2128633 245.647613,83.6838799 245.647613,83.0426782 C245.647613,82.7701674 245.679673,82.5056757 245.743793,82.249195 C246.000274,81.111062 246.573339,80.2614825 247.463006,79.700431 C248.352674,79.1393795 249.69517,78.8588579 251.490534,78.8588579 Z M210.596536,74.7712175 C212.24763,74.7712175 213.730387,75.0276943 215.044851,75.5406557 L214.443727,78.3779591 C213.193384,77.8169076 211.790776,77.536386 210.235862,77.536386 C208.488587,77.536386 207.134069,77.9731981 206.172266,78.8468355 C205.210464,79.7204728 204.537212,81.0709836 204.152491,82.8984085 C203.992191,83.5877003 203.912042,84.2288924 203.912042,84.822004 C203.912042,85.8960169 204.240653,86.6934995 204.897884,87.2144759 C205.555116,87.7354523 206.613083,87.9959366 208.071817,87.9959366 C209.642761,87.9959366 211.149563,87.7234299 212.592266,87.1784085 L211.991143,90.0397568 C210.468289,90.504628 208.873323,90.7370602 207.206199,90.7370602 C205.154353,90.7370602 203.547366,90.2200991 202.385188,89.1861613 C201.22301,88.1522235 200.641929,86.7295786 200.641929,84.9181838 C200.641929,84.2930121 200.714063,83.6197604 200.858334,82.8984085 C201.996467,77.4802541 205.242502,74.7712175 210.596536,74.7712175 Z M112.348163,78.8588579 C114.063377,78.8588579 115.349769,79.2195285 116.207376,79.9408804 C117.064983,80.6622323 117.49378,81.7041695 117.49378,83.0667231 C117.49378,83.5476244 117.429661,84.1246973 117.301421,84.7979591 C116.88464,86.7696543 116.08315,88.252411 114.896927,89.2462737 C113.710703,90.2401363 112.019559,90.7370602 109.823443,90.7370602 C108.140289,90.7370602 106.869927,90.3803971 106.01232,89.6670602 C105.154713,88.9537233 104.725915,87.9157936 104.725915,86.55324 C104.709885,86.0402786 104.774004,85.4551908 104.918275,84.7979591 C105.335056,82.8422938 106.140554,81.3635446 107.334792,80.3616669 C108.52903,79.3597893 110.200137,78.8588579 112.348163,78.8588579 Z M162.908228,78.8588579 C163.56546,78.8588579 164.126503,78.930992 164.591374,79.0752624 C165.056246,79.2195328 165.481035,79.4760096 165.865756,79.8447006 L166.010026,79.0993074 L169.256093,79.0993074 L166.851599,90.4966107 L164.062386,90.4966107 L164.086431,89.4386332 C163.493319,89.8714444 162.876172,90.1960479 162.23497,90.4124534 C161.593768,90.628859 160.880442,90.7370602 160.09497,90.7370602 C158.780506,90.7370602 157.738569,90.4365014 156.969127,89.8353748 C156.199685,89.2342482 155.81497,88.2924973 155.81497,87.0100939 C155.81497,86.5772827 155.879089,86.0242546 156.007329,85.3509928 C156.29587,84.0204992 156.776764,82.8663535 157.450026,81.8885209 C158.123288,80.9106882 158.928785,80.161295 159.866543,79.6403186 C160.8043,79.1193422 161.818185,78.8588579 162.908228,78.8588579 Z M138.626061,79.0993074 L137.135274,86.1685209 C137.071154,86.4410316 137.039094,86.7135382 137.039094,86.9860489 C137.039094,87.4669502 137.183362,87.8155984 137.471903,88.032004 C137.760444,88.2484096 138.225308,88.3566107 138.86651,88.3566107 C139.411531,88.3566107 139.944522,88.2484096 140.465499,88.032004 C140.986475,87.8155984 141.463362,87.5310694 141.896173,87.1784085 L143.603364,79.0993074 L146.849431,79.0993074 L144.444937,90.4966107 L141.439319,90.4966107 L141.535499,89.4145883 C140.237065,90.2962406 138.802398,90.7370602 137.231454,90.7370602 C136.125381,90.7370602 135.263779,90.4645535 134.646622,89.9195321 C134.029466,89.3745106 133.720892,88.5890503 133.720892,87.5631276 C133.720892,87.1623765 133.768981,86.721557 133.865162,86.2406557 L135.379993,79.0993074 L138.626061,79.0993074 Z M242.391136,75.6849253 L241.669788,79.0993074 L244.555181,79.0993074 L243.833833,81.5999815 L241.140799,81.5999815 L240.058776,86.6734647 C240.010686,86.9299454 239.986642,87.1543626 239.986642,87.3467231 C239.986642,87.699384 240.102858,87.947846 240.335293,88.0921164 C240.567729,88.2363867 240.956452,88.3085209 241.501473,88.3085209 C241.934284,88.3085209 242.415178,88.2283718 242.94417,88.0680714 L242.463271,90.3042512 C241.693829,90.592792 240.81219,90.7370602 239.818327,90.7370602 C238.776374,90.7370602 237.986906,90.4966131 237.4499,90.0157119 C236.912894,89.5348106 236.644394,88.8615589 236.644394,87.9959366 C236.644394,87.6913658 236.684469,87.3226803 236.764619,86.8898692 L237.894731,81.5999815 L236.28372,81.5999815 L236.812709,79.0993074 L238.42372,79.0993074 L238.952709,76.6467231 L242.391136,75.6849253 Z M221.114586,74.2903186 L219.888294,80.0611051 C220.465376,79.6924141 221.106568,79.3998702 221.81189,79.1834647 C222.517211,78.9670591 223.254582,78.8588579 224.024024,78.8588579 C225.194218,78.8588579 226.079864,79.1113273 226.680991,79.6162737 C227.282117,80.12122 227.582676,80.8706133 227.582676,81.8644759 C227.582676,82.265227 227.534587,82.7060465 227.438406,83.1869478 L225.89953,90.4966107 L222.653463,90.4966107 L224.168294,83.3552624 C224.232414,83.0506916 224.264474,82.7621552 224.264474,82.4896444 C224.264474,82.0408033 224.120206,81.7202072 223.831665,81.5278467 C223.543124,81.3354862 223.06223,81.2393074 222.388968,81.2393074 C221.892037,81.2393074 221.371068,81.3475085 220.826047,81.5639141 C220.281025,81.7803197 219.800131,82.0648487 219.38335,82.4175096 L217.676159,90.4966107 L214.430092,90.4966107 L217.868519,74.2903186 L221.114586,74.2903186 Z M186.482683,78.8588579 C187.508606,78.8588579 188.286051,79.0912901 188.815042,79.5561613 C189.344034,80.0210325 189.608526,80.7263438 189.608526,81.6721164 C189.608526,82.0728674 189.560436,82.513687 189.464256,82.9945883 L187.87729,90.4966107 L184.679312,90.4966107 L186.194144,83.3552624 C186.258264,83.0506916 186.290323,82.7621552 186.290323,82.4896444 C186.290323,82.0568333 186.162085,81.7402447 185.905604,81.5398692 C185.649124,81.3394936 185.216319,81.2393074 184.607177,81.2393074 C184.158336,81.2393074 183.701487,81.3314787 183.236616,81.5158242 C182.771744,81.7001697 182.354969,81.9526391 181.986278,82.27324 C182.002308,82.5457507 181.970249,82.8743616 181.890099,83.2590827 L180.375267,90.4966107 L177.345604,90.4966107 L178.860436,83.3552624 C178.924556,83.0506916 178.956616,82.7541403 178.956616,82.4655995 C178.956616,82.0488184 178.848414,81.7402447 178.632009,81.5398692 C178.415603,81.3394936 178.050925,81.2393074 177.537964,81.2393074 C176.720432,81.2393074 175.798718,81.6480673 174.772795,82.4655995 L173.089649,90.4966107 L169.891672,90.4966107 L172.296166,79.0993074 L175.301784,79.0993074 L175.181559,80.2053748 C176.576173,79.3076924 177.970766,78.8588579 179.36538,78.8588579 C180.134822,78.8588579 180.723917,78.975074 181.132683,79.2075096 C181.541449,79.4399452 181.817963,79.7885934 181.962233,80.2534647 C183.356847,79.3237222 184.863649,78.8588579 186.482683,78.8588579 Z M234.734434,79.0993074 L232.32994,90.4966107 L229.083872,90.4966107 L230.983423,81.5038018 L229.276232,81.5038018 L230.069715,79.0993074 L234.734434,79.0993074 Z M106.206292,75.0116669 L99.2813483,81.2873973 L103.224719,90.4966107 L99.7622472,90.4966107 L96.828764,83.3552624 L94.28,85.5914422 L93.2460674,90.4966107 L90,90.4966107 L91.061,85.4716669 L95.999,80.7916669 L102.479326,75.0116669 L106.206292,75.0116669 Z M157.247257,78.8588579 L156.742313,81.3114422 C156.036991,81.4076225 155.267561,81.5719279 154.433998,81.8043635 C153.600436,82.0367992 152.927184,82.2812537 152.414223,82.5377343 L150.731077,90.4966107 L147.48501,90.4966107 L149.889504,79.0993074 L152.895122,79.0993074 L152.798942,80.2775096 C153.392054,79.9408787 154.093358,79.6443274 154.902875,79.3878467 C155.712392,79.131366 156.493845,78.9550382 157.247257,78.8588579 Z M126.376774,81.2393074 C125.382912,81.2393074 124.461198,81.5839481 123.611606,82.27324 L122.505539,87.4909928 C122.810109,87.7795335 123.134713,87.9959359 123.479359,88.1402062 C123.824005,88.2844766 124.252802,88.3566107 124.765763,88.3566107 C125.743596,88.3566107 126.541078,88.0640668 127.158235,87.4789703 C127.775392,86.8938737 128.220219,85.9761676 128.49273,84.7258242 C128.62097,84.0846225 128.685089,83.5636539 128.685089,83.1629029 C128.685089,82.4896411 128.504754,82.0007321 128.144078,81.6961613 C127.783402,81.3915905 127.194307,81.2393074 126.376774,81.2393074 Z M163.244857,81.2393074 C162.234965,81.2393074 161.397408,81.5879556 160.732161,82.2852624 C160.066914,82.9825693 159.590027,84.0044692 159.301487,85.3509928 C159.189276,85.815864 159.133172,86.2486687 159.133172,86.6494197 C159.133172,87.2745914 159.317515,87.715411 159.686206,87.9718916 C160.054897,88.2283723 160.656014,88.3566107 161.489577,88.3566107 C162.018568,88.3566107 162.50347,88.2764617 162.944296,88.1161613 C163.385122,87.9558609 163.829949,87.6913691 164.27879,87.3226782 L165.336768,82.249195 C164.839836,81.5759332 164.14254,81.2393074 163.244857,81.2393074 Z M111.771084,81.6240265 C110.729131,81.6240265 109.935656,81.8644735 109.390634,82.3453748 C108.845613,82.8262761 108.452883,83.643796 108.212432,84.7979591 C108.084192,85.3910706 108.020073,85.8559349 108.020073,86.1925658 C108.020073,86.8337675 108.208423,87.2906169 108.585129,87.5631276 C108.961835,87.8356383 109.574975,87.9718916 110.424567,87.9718916 C111.48255,87.9718916 112.280032,87.7314446 112.817039,87.2505433 C113.354045,86.769642 113.750783,85.9521221 114.007264,84.7979591 C114.119474,84.3010277 114.175578,83.8441784 114.175578,83.4273973 C114.175578,82.7701655 113.991236,82.3053012 113.622545,82.0327905 C113.253854,81.7602798 112.636706,81.6240265 111.771084,81.6240265 Z M96.5161798,75.0116669 L95.444,80.0566669 L91.394,83.8946669 L93.2701124,75.0116669 L96.5161798,75.0116669 Z M235.744322,74.4586332 L235.215333,77.0073973 L231.680726,77.0073973 L232.209715,74.4586332 L235.744322,74.4586332 Z" id="Combined-Shape"></path>
            </g>
        </g>
    </g>
</svg>