<?xml version="1.0" encoding="UTF-8"?>
<svg width="717px" height="354px" viewBox="0 0 717 354" version="1.1" xmlns="http://www.w3.org/2000/svg" xmlns:xlink="http://www.w3.org/1999/xlink">
    <!-- Generator: Sketch 61.2 (89653) - https://sketch.com -->
    <title>ON40S81</title>
    <desc>Created with Sketch.</desc>
    <g id="Page-1" stroke="none" stroke-width="1" fill="none" fill-rule="evenodd">
        <g id="Home" transform="translate(-344.000000, -1109.000000)">
            <g id="ON40S81" transform="translate(344.000000, 1109.000000)">
                <path d="M219.588,353.813 C217.852,353.813 216.445,352.406 216.444,350.67 L216.416999,236.864 C216.416,235.129 217.823,233.721 219.559,233.721 L219.56,233.721 C221.296,233.721 222.703,235.127 222.703,236.863 L222.731,350.669 C222.731,352.404 221.324,353.813 219.589,353.813 L219.588,353.813" id="Fill-4" fill="#64826E"></path>
                <path d="M222.733,299.187 C226.084,300.703 229.747,301.498001 233.431,301.498001 C238.154,301.499 242.794,300.188 246.847,297.709 C254.14,293.249 258.737,285.402 259.145,276.915 C255.794,275.398 252.131,274.604 248.447,274.604 C243.723,274.604 239.084,275.913 235.031,278.392 C227.738,282.853 223.141,290.699 222.733,299.187 Z M233.432,307.784 L233.431,307.784 C228.083,307.784 222.77,306.436 218.069,303.884 C217.08,303.348 216.454,302.322 216.426,301.197 C216.149,289.774 222.021,278.98 231.751,273.029 C236.792,269.946 242.565,268.316 248.447,268.316 C253.795,268.316 259.107,269.666 263.809,272.217 C264.798,272.753 265.424,273.778 265.452,274.903 C265.729,286.327 259.857,297.12 250.127,303.072 C245.086,306.155 239.313,307.784 233.432,307.784 L233.432,307.784 Z" id="Fill-5" fill="#64826E"></path>
                <path d="M179.975,276.915 C180.383,285.402 184.98,293.249 192.273,297.709 C196.326,300.188 200.965,301.498 205.689,301.498 C209.372,301.498 213.035,300.703 216.387,299.187 C215.979,290.699 211.382,282.853 204.089,278.392 C200.036,275.913 195.397,274.604 190.673,274.604 C186.989,274.604 183.326,275.398 179.975,276.915 Z M205.689,307.784 C199.807,307.784 194.034,306.155 188.993,303.072 C179.262,297.12 173.39,286.326 173.668,274.903 C173.695,273.778 174.322,272.753 175.311,272.217 C180.012,269.666 185.324,268.316 190.673,268.316 C196.554,268.316 202.328,269.946 207.369,273.029 C217.099,278.98 222.971,289.774 222.694,301.197 C222.666,302.322 222.04,303.348 221.051,303.884 C216.349,306.436 211.037,307.784 205.689,307.784 L205.689,307.784 Z" id="Fill-6" fill="#64826E"></path>
                <path d="M222.733,234.928 C226.084,236.444 229.747,237.24 233.431,237.24 C238.155,237.24 242.794,235.931 246.847,233.451 C254.14,228.99 258.737,221.144 259.145,212.656 C255.794,211.14 252.131,210.345 248.446,210.345 C243.723,210.345 239.084,211.654 235.031,214.134 C227.738,218.594 223.141,226.44 222.733,234.928 Z M233.432,243.526 L233.431,243.526 C228.083,243.526 222.771,242.178 218.069,239.626 C217.08,239.09 216.454,238.064 216.426,236.939 C216.149,225.517 222.021,214.723 231.751,208.771 C236.792,205.688 242.565,204.059 248.446,204.059 C253.795,204.059 259.107,205.407 263.809,207.959 C264.798,208.495 265.424,209.521 265.452,210.646 C265.729,222.068 259.857,232.862 250.127,238.813 C245.087,241.896 239.313,243.526 233.432,243.526 L233.432,243.526 Z" id="Fill-7" fill="#64826E"></path>
                <path d="M179.975,212.656 C180.383,221.144 184.98,228.99 192.273,233.451 C196.325,235.93 200.965,237.24 205.689,237.24 C209.372,237.24 213.035,236.444 216.387,234.928 C215.979,226.44 211.382,218.594 204.089,214.134 C200.036,211.654 195.397,210.345 190.673,210.345 C186.989,210.345 183.326,211.14 179.975,212.656 Z M205.689,243.526 C199.807,243.526 194.033,241.896 188.993,238.813 C179.262,232.862 173.39,222.068 173.668,210.646 C173.695,209.521 174.322,208.495 175.311,207.959 C180.012,205.407 185.325,204.059 190.673,204.059 C196.554,204.059 202.328,205.688 207.369,208.771 C217.099,214.723 222.971,225.517 222.694,236.939 C222.666,238.064 222.039,239.09 221.051,239.626 C216.349,242.178 211.037,243.526 205.689,243.526 L205.689,243.526 Z" id="Fill-8" fill="#64826E"></path>
                <path d="M459.793,353.813 C458.059,353.813 456.652,352.407 456.651,350.672 L456.612999,301.124 C456.612,299.388 458.019,297.979 459.754,297.979 L459.757,297.979 C461.491,297.979 462.899,299.384 462.901,301.119 L462.937001,350.667 C462.938,352.403 461.531,353.812 459.796,353.813 L459.793,353.813" id="Fill-9" fill="#64826E"></path>
                <path d="M462.938,299.187 C466.29,300.702 469.952,301.498001 473.637,301.498001 C478.361,301.499 482.999,300.188 487.052,297.709 C494.345,293.249 498.943,285.402 499.351,276.915 C495.999,275.398 492.337,274.604 488.653,274.604 C483.929,274.604 479.289,275.913 475.237,278.392 C467.944,282.853 463.347,290.699 462.938,299.187 Z M473.638,307.784 L473.637,307.784 C468.288,307.784 462.976,306.436 458.275,303.884 C457.286,303.348 456.659,302.322 456.632,301.198 C456.354,289.774 462.226,278.98 471.956,273.029 C476.997,269.946 482.771,268.316 488.653,268.316 C494.001,268.316 499.313,269.666 504.014,272.217 C505.003,272.753 505.63,273.778 505.657,274.903 C505.935,286.327 500.063,297.12 490.332,303.072 C485.292,306.155 479.519,307.784 473.638,307.784 L473.638,307.784 Z" id="Fill-10" fill="#64826E"></path>
                <path d="M420.18,276.915 C420.588,285.402 425.185,293.249 432.479,297.709 C436.531,300.188 441.17,301.498 445.894,301.498 C449.578,301.498 453.241,300.703 456.592,299.187 C456.184,290.699 451.587,282.853 444.294,278.392 C440.241,275.913 435.602,274.604 430.878,274.604 C427.194,274.604 423.531,275.398 420.18,276.915 Z M445.894,307.784 C440.013,307.784 434.239,306.155 429.198,303.072 C419.468,297.12 413.596,286.326 413.874,274.902 C413.902,273.778 414.527,272.753 415.517,272.217 C420.218,269.666 425.53,268.316 430.878,268.316 C436.76,268.316 442.533,269.946 447.574,273.029 C457.305,278.98 463.176,289.774 462.899,301.197 C462.872,302.322 462.245,303.347 461.257,303.884 C456.555,306.436 451.243,307.784 445.894,307.784 L445.894,307.784 Z" id="Fill-11" fill="#64826E"></path>
                <path d="M339.663,353.813 C337.927,353.813 336.52,352.406 336.52,350.67 L336.483999,111.261 C336.483,109.525 337.89,108.117 339.626,108.117 C341.362,108.117 342.77,109.524 342.77,111.26 L342.806,350.669 C342.806,352.405 341.4,353.813 339.663,353.813" id="Fill-12" fill="#64826E"></path>
                <path d="M342.784,278.602 C347.435,280.812 352.559,281.973 357.714,281.973 L357.715,281.973 C364.049,281.973 370.269,280.216 375.703,276.893 C385.667,270.798 391.878,259.991 392.219,248.365 C387.569,246.155 382.444,244.994 377.29,244.994 C370.956,244.994 364.735,246.751 359.301,250.075 C349.337,256.169 343.126,266.976 342.784,278.602 Z M357.715,288.259 L357.713,288.259 C350.898,288.259 344.13,286.54 338.138,283.289 C337.15,282.753 336.523,281.728 336.495,280.604 C336.141,266.048 343.623,252.295 356.021,244.712 C362.443,240.784 369.797,238.708 377.29,238.708 C384.106,238.708 390.874,240.427 396.865,243.679 C397.854,244.215 398.481,245.239 398.508,246.364 C398.862,260.919 391.381,274.672 378.984,282.255 C372.562,286.183 365.206,288.259 357.715,288.259 L357.715,288.259 Z" id="Fill-13" fill="#64826E"></path>
                <path d="M287.033,248.365 C287.375,259.991 293.586,270.798 303.55,276.893 C308.984,280.216 315.205,281.973 321.54,281.973 C326.694,281.973 331.818,280.812 336.468,278.602 C336.127,266.976 329.916,256.169 319.952,250.075 C314.518,246.751 308.298,244.994 301.963,244.994 C296.808,244.994 291.684,246.155 287.033,248.365 Z M321.54,288.259 C314.047,288.259 306.692,286.183 300.27,282.255 C287.872,274.672 280.391,260.919 280.744,246.364 C280.772,245.239 281.398,244.215 282.387,243.679 C288.379,240.427 295.147,238.708 301.963,238.708 C309.456,238.708 316.81,240.784 323.232,244.712 C335.63,252.295 343.111,266.047 342.757,280.604 C342.73,281.728 342.104,282.753 341.114,283.289 C335.124,286.54 328.355,288.259 321.54,288.259 L321.54,288.259 Z" id="Fill-14" fill="#64826E"></path>
                <path d="M342.784,194.817 C347.435,197.027 352.559,198.188 357.714,198.189 L357.715,198.189 C364.049,198.189 370.269,196.432 375.703,193.107 C385.667,187.014 391.878,176.207 392.219,164.582 C387.569,162.371 382.444,161.21 377.29,161.21 C370.955,161.21 364.735,162.967 359.301,166.291 C349.337,172.386 343.126,183.191 342.784,194.817 Z M357.715,204.476 L357.713,204.476 C350.898,204.475 344.129,202.756 338.138,199.505 C337.15,198.968 336.523,197.943 336.495,196.818 C336.141,182.264 343.623,168.511 356.021,160.928 C362.443,157 369.797,154.924 377.29,154.924 C384.106,154.924 390.874,156.643 396.865,159.895 C397.854,160.431 398.481,161.456 398.508,162.58 C398.862,177.136 391.381,190.888 378.983,198.471 C372.562,202.398 365.206,204.476 357.715,204.476 L357.715,204.476 Z" id="Fill-15" fill="#64826E"></path>
                <path d="M287.033,164.582 C287.375,176.208 293.586,187.014 303.55,193.107 C308.984,196.432 315.205,198.189 321.54,198.189 C326.694,198.189 331.818,197.027 336.468,194.817 C336.127,183.191 329.916,172.386 319.952,166.291 C314.518,162.967 308.298,161.21 301.963,161.21 C296.808,161.21 291.685,162.371 287.033,164.582 Z M321.54,204.476 C314.047,204.476 306.692,202.398 300.27,198.471 C287.872,190.888 280.391,177.136 280.744,162.581 C280.772,161.456 281.398,160.431 282.387,159.895 C288.379,156.643 295.148,154.924 301.963,154.924 C309.456,154.924 316.81,157 323.232,160.928 C335.63,168.511 343.111,182.264 342.757,196.818 C342.73,197.943 342.104,198.968 341.114,199.505 C335.124,202.757 328.355,204.476 321.54,204.476 L321.54,204.476 Z" id="Fill-16" fill="#64826E"></path>
                <path d="M353.689,7.07 L353.689,7.07 C351.911,6.661 350.784,4.895 351.182,3.105 C351.58,1.328 353.358,0.201 355.147,0.599 C356.925,0.996 358.051,2.774 357.653,4.563 C357.3,6.098 355.942,7.147 354.417,7.147 C354.175,7.147 353.932,7.125 353.689,7.07 Z M321.332,4.651 C320.923,2.874 322.039,1.096 323.817,0.687 C325.606,0.268 327.384,1.383 327.792,3.172 C328.201,4.95 327.086,6.728 325.307,7.136 C325.053,7.192 324.799,7.225 324.557,7.225 C323.044,7.225 321.686,6.187 321.332,4.651 Z M379.287,19.317 L379.287,19.317 C377.852,18.18 377.62,16.092 378.757,14.657 C379.895,13.221 381.982,12.99 383.406,14.127 C384.842,15.264 385.085,17.34 383.947,18.776 C383.296,19.604 382.324,20.035 381.353,20.035 C380.623,20.035 379.905,19.803 379.287,19.317 Z M295.115,19.008 C293.967,17.583 294.199,15.496 295.623,14.358 C297.048,13.21 299.135,13.442 300.284,14.867 C301.432,16.291 301.2,18.378 299.776,19.527 C299.157,20.013 298.428,20.255 297.699,20.255 C296.728,20.255 295.767,19.825 295.115,19.008 Z M397.067,41.447 L397.067,41.447 C396.272,39.802 396.956,37.815 398.603,37.02 C400.247,36.213 402.224,36.898 403.03,38.543 C403.825,40.189 403.141,42.177 401.494,42.972 C401.031,43.204 400.535,43.314 400.048,43.314 C398.822,43.314 397.642,42.618 397.067,41.447 Z M277.689,43.303 C276.033,42.508 275.337,40.531 276.132,38.886 C276.927,37.229 278.903,36.534 280.549,37.329 C282.206,38.124 282.902,40.101 282.107,41.746 C281.532,42.938 280.35,43.635 279.114,43.635 C278.639,43.635 278.153,43.524 277.689,43.303 Z M403.472,69.321 L403.472,69.232 L403.461,69.089 C403.461,67.267 404.941,65.776 406.763,65.765 C408.596,65.765 410.087,67.245 410.087,69.067 L410.087,69.321 L410.098,69.321 C410.098,71.154 408.607,72.634 406.784,72.634 C404.952,72.634 403.472,71.154 403.472,69.321 Z M269.23,69.454 C269.23,67.62 270.71,66.129 272.543,66.129 C274.365,66.129 275.856,67.609 275.856,69.432 C275.856,71.264 274.377,72.755 272.554,72.755 C270.721,72.755 269.23,71.276 269.23,69.454 Z M398.712,101.424 C397.067,100.629 396.371,98.641 397.166,96.996 C397.962,95.35 399.939,94.654 401.595,95.449 C403.239,96.245 403.924,98.222 403.141,99.878 C402.567,101.059 401.385,101.755 400.148,101.755 C399.662,101.744 399.176,101.645 398.712,101.424 Z M276.243,99.988 C275.447,98.342 276.132,96.355 277.777,95.56 C279.423,94.753 281.41,95.449 282.206,97.095 C283.001,98.74 282.317,100.728 280.671,101.523 C280.196,101.744 279.71,101.855 279.224,101.855 C277.998,101.855 276.817,101.17 276.243,99.988 Z M378.944,123.841 C377.796,122.417 378.027,120.33 379.464,119.192 C380.889,118.043 382.976,118.287 384.124,119.712 C385.262,121.137 385.03,123.223 383.594,124.361 L383.594,124.372 C382.986,124.857 382.257,125.089 381.529,125.089 C380.557,125.089 379.597,124.669 378.944,123.841 Z M295.811,124.438 L295.822,124.438 C294.386,123.301 294.154,121.213 295.292,119.789 C296.429,118.353 298.517,118.121 299.942,119.259 C301.377,120.396 301.609,122.483 300.471,123.908 C299.82,124.736 298.848,125.167 297.876,125.167 C297.158,125.167 296.429,124.924 295.811,124.438 Z M351.414,135.493 C351.005,133.714 352.12,131.936 353.909,131.527 C355.698,131.12 357.466,132.235 357.874,134.024 C358.282,135.801 357.167,137.58 355.378,137.988 C355.136,138.043 354.893,138.077 354.65,138.077 C353.136,138.077 351.768,137.027 351.414,135.493 Z M324.06,138.01 C322.271,137.613 321.155,135.834 321.564,134.056 C321.962,132.267 323.739,131.152 325.518,131.55 C327.306,131.958 328.422,133.736 328.024,135.514 C327.671,137.049 326.302,138.098 324.789,138.098 C324.546,138.098 324.303,138.077 324.06,138.01 L324.06,138.01 Z" id="Fill-20" fill-opacity="0.189849213" fill="#DE4D59"></path>
                <g id="Group-2" transform="translate(291.098000, 21.886000)">
                    <path d="M96.1538713,43.3206657 C98.5154884,69.48517 78.9521575,92.5972205 52.4541614,94.9441848 C25.9561652,97.2889948 2.5565671,77.9801249 0.193861758,51.8145435 C-2.17210849,25.6500392 17.3923106,2.53798866 43.8913951,0.193178603 C70.3893913,-2.15378562 93.7879011,17.1561614 96.1538713,43.3206657" id="Fill-142" fill="#DE4D59"></path>
                    <path d="M11.7364011,51.9362539 C11.5688024,51.9362539 11.1138919,50.3777146 10.9343219,47.4717442 C10.7721648,44.5636197 10.9582646,40.2262057 12.630986,35.178994 C13.4700674,32.6672361 14.6715537,29.9928386 16.3399218,27.3335202 C18.0246146,24.6903581 20.146805,22.0439648 22.7892041,19.6657652 C24.1049622,18.4734341 25.5317271,17.3306489 27.0901767,16.3052657 C28.6420965,15.2723429 30.2941401,14.3072764 32.0637205,13.498387 C33.8289476,12.6862663 35.677974,11.9613893 37.6151529,11.4185394 C39.5512436,10.8724582 41.5558973,10.4631666 43.6051715,10.2057437 C45.1581795,10.028025 46.7068344,9.94185834 48.2391647,9.94185834 C48.7321659,9.94185834 49.2229904,9.95047501 49.7127267,9.96878542 C51.7239102,10.0387958 53.6959149,10.3059125 55.6058863,10.6764291 C57.5169459,11.0426373 59.3561776,11.5897956 61.1105217,12.2263517 C62.8724839,12.8532141 64.5343223,13.6265599 66.0982134,14.4720701 C69.2379669,16.1566282 71.9380461,18.2246279 74.2136872,20.3927963 C76.4719155,22.5803522 78.2872045,24.8939269 79.7096163,27.1353369 C82.5533515,31.6396987 83.780957,35.8090877 84.3294616,38.6708976 C84.8605534,41.5553264 84.7887254,43.1806449 84.62548,43.1978782 C84.6233034,43.1978782 84.6211267,43.1978782 84.6189501,43.1978782 C84.399113,43.1978782 84.0976531,41.6274909 83.2661898,38.9315518 C82.415137,36.2302272 80.9481049,32.343034 78.0456013,28.2145743 C76.5970703,26.1584225 74.8002824,24.0516478 72.6106172,22.0665836 C70.4057158,20.104138 67.832968,18.2375529 64.8738728,16.7296365 C63.4003108,15.9713699 61.8407729,15.2788054 60.1952591,14.7208764 C58.5562751,14.1554077 56.8454631,13.667489 55.0671764,13.3475953 C53.2954194,13.0212391 51.4681591,12.7842808 49.6038964,12.7304267 C49.2012244,12.7185787 48.7963757,12.7121162 48.3904388,12.7121162 C46.9201417,12.7121162 45.4356967,12.7939746 43.9436336,12.9630766 C42.0423687,13.2043433 40.1846358,13.5791682 38.3889362,14.0746265 C36.59106,14.5679305 34.8737182,15.2281825 33.2292927,15.9638303 C31.5816023,16.6962469 30.038389,17.5740697 28.5811515,18.511132 C27.1184726,19.4417319 25.7722421,20.4832713 24.5228705,21.567894 C22.0143326,23.7317541 19.9661467,26.1530371 18.2999552,28.5807825 C16.6544413,31.0246842 15.4181294,33.495513 14.50722,35.8349377 C12.6875777,40.5299432 12.203283,44.6497863 12.0291545,47.4738984 C11.8713506,50.3120125 11.9616797,51.9125581 11.739666,51.9362539 C11.7385777,51.9362539 11.7374894,51.9362539 11.7364011,51.9362539" id="Fill-143" fill="#AB363E"></path>
                    <path d="M49.2436682,75.663319 L48.5993929,69.537947 C48.1140099,69.5594887 47.6286269,69.5691824 47.1454204,69.5691824 C42.0010132,69.5691824 37.0753548,68.4145493 33.9878398,66.4984183 L36.3886357,59.319659 C39.4097642,61.0860754 43.5899352,62.1760836 47.672159,62.1760836 C47.7233092,62.1760836 47.7744594,62.1760836 47.8256097,62.1760836 L46.838519,52.7893038 C40.3761771,51.9233289 33.1171975,50.5683583 32.2715863,42.5311637 C31.6458122,36.5727396 35.4809912,31.0096051 44.3463057,29.0751637 L43.6900591,22.8356209 L49.368823,22.2507648 L50.0130982,28.3782909 C50.2851739,28.3718284 50.5572496,28.3685972 50.828237,28.3685972 C54.8440743,28.3685972 58.7804655,29.0762408 61.8995412,30.6186239 L59.7882338,37.8243103 C56.7203083,36.4930355 53.6665307,35.8414002 50.792323,35.7950856 L51.7979148,45.3498904 C58.2526386,46.160934 65.4006113,47.5288296 66.2320746,55.4518534 C66.8469657,61.2982608 63.0629369,66.8000016 54.2596557,68.7850659 L54.9224321,75.080617 L49.2436682,75.663319 M52.6663804,53.6100412 L53.4815192,61.366117 C56.255603,60.4559818 57.3504356,58.8672841 57.1621592,57.0685552 C56.9553817,55.1007243 55.1966844,54.203514 52.6663804,53.6100412 M45.130972,36.5490438 C42.1925545,37.5334978 41.1717264,39.2859121 41.3665326,41.1417264 C41.5733102,43.1063261 43.3896875,44.0003052 45.9711417,44.529153 L45.130972,36.5490438" id="Fill-144" fill="#AB363E"></path>
                    <path d="M11.6177761,50.8957916 C11.6275708,50.8957916 11.6515135,50.9938062 11.6885158,51.1844499 C11.7276947,51.4084832 11.7777566,51.6885248 11.8397898,52.0353456 C11.9029114,52.4230955 11.9801809,52.8840871 12.0683334,53.4193974 C12.1575742,53.9654786 12.2326671,54.6009577 12.4448862,55.291368 C13.0684837,58.0907071 14.3907716,62.1017649 17.1158817,66.4693371 C18.4436111,68.6741263 20.2621651,70.8487572 22.3658544,73.021234 C22.9285069,73.5285402 23.5031308,74.0423088 24.0842844,74.5646942 C24.3792145,74.822117 24.6599966,75.1010816 24.9734278,75.3455795 C25.2933888,75.5814607 25.6155265,75.8205731 25.9398407,76.0607627 C26.5960873,76.5292939 27.2283912,77.0538334 27.9314348,77.4965146 C28.6431848,77.9251937 29.3636412,78.3603353 30.0938924,78.8008623 C33.0878134,80.4175641 36.4125784,81.8490076 40.0573044,82.6277388 C43.6911474,83.4064699 47.5622404,83.6897428 51.4986315,83.3827741 C55.4284929,82.9734825 59.1820492,81.996568 62.6134679,80.5748182 C66.053593,79.1498372 69.058397,77.1421542 71.7051493,75.0116837 C72.3418064,74.4472921 72.9708455,73.889363 73.591178,73.3389735 C74.2006276,72.7767361 74.7251895,72.1466425 75.2856655,71.5671717 C75.5599178,71.2720509 75.8330818,70.9801614 76.1040692,70.6893489 C76.3674384,70.3931511 76.5905405,70.067872 76.8343203,69.7619803 C77.3099087,69.1426575 77.7789671,68.5330284 78.2393192,67.9341702 C79.9065991,65.4181039 81.2930968,62.9505064 82.1931232,60.5432255 C84.0682689,55.757745 84.6276566,51.574354 84.7256038,48.7103898 C84.8061382,47.9930525 84.7626061,47.3554192 84.7506348,46.8017985 C84.7375751,46.2589486 84.7277804,45.7925715 84.719074,45.4005133 C84.7158091,45.04723 84.7136325,44.76288 84.7114559,44.5366926 C84.7125442,44.3417405 84.719074,44.2415718 84.7277804,44.2404859 C84.7375751,44.2394176 84.7517231,44.3374322 84.7691359,44.5313072 C84.7854605,44.7585717 84.8072265,45.0418446 84.8333458,45.3929737 C84.8572884,45.7871861 84.8855843,46.2535631 84.9182334,46.7974901 C84.9497942,47.3532651 85.0096508,47.9952066 84.9465293,48.7168523 C84.9149685,51.600204 84.4143492,55.8288325 82.5664111,60.6875547 C81.6816209,63.1293022 80.2983881,65.6378289 78.626755,68.1980556 C78.163138,68.8076846 77.6929912,69.4280846 77.214138,70.0581782 C76.9714465,70.3694552 76.7461678,70.7011969 76.4795336,71.0027801 C76.2063696,71.298978 75.9321173,71.59733 75.6567767,71.8967592 C75.0919476,72.4870007 74.5619441,73.1278652 73.9470531,73.7019506 C73.3201906,74.2620338 72.6846218,74.8307337 72.0414349,75.4058961 C69.3674749,77.5783729 66.3224038,79.625908 62.8322167,81.0788932 C59.3529127,82.5308013 55.5394998,83.5260261 51.5508701,83.9417802 C47.553534,84.2541343 43.621496,83.9622448 39.9332379,83.1630491 C36.235185,82.3649305 32.8647113,80.9022515 29.8359647,79.2489289 C29.0970071,78.7997852 28.3678442,78.3549498 27.6473878,77.9176541 C26.9389026,77.4642021 26.2989806,76.9299688 25.6362042,76.4506668 C25.3086251,76.2061689 24.9832225,75.9627481 24.6610849,75.7214815 C24.3443888,75.4726753 24.0614301,75.1883253 23.7643234,74.925517 C23.1788165,74.3923609 22.6020161,73.8667443 22.033922,73.3508214 C19.9171731,71.1363385 18.0964425,68.9197013 16.7741547,66.6782912 C14.0631924,62.2353232 12.7909665,58.16718 12.2283139,55.3376826 C12.0335077,54.6397327 11.9747394,53.9977911 11.9018231,53.4463245 C11.8343483,52.9056288 11.77558,52.4403288 11.7266063,52.0493477 C11.6874274,51.6982185 11.6558667,51.4160228 11.6308357,51.1909124 C11.6126903,50.9970374 11.6079813,50.8968687 11.6177761,50.8957916" id="Fill-145" fill="#1A282B"></path>
                </g>
                <path d="M570.892,353.813 L176.811,353.813 C175.075,353.813 173.668,352.406 173.668,350.67 C173.668,348.934 175.075,347.526 176.811,347.526 L570.892,347.526 C572.627,347.526 574.034,348.934 574.034,350.67 C574.034,352.406 572.627,353.813 570.892,353.813" id="Fill-21" fill="#64826E"></path>
                <path d="M3.524,353.813 C1.788,353.813 0.381,352.406 0.381,350.67 C0.381,348.934 1.788,347.526 3.524,347.526 L77.605,347.526 C79.34,347.526 80.747,348.934 80.747,350.67 C80.747,352.406 79.34,353.813 77.605,353.813 L3.524,353.813 Z" id="Fill-21" fill="#64826E"></path>
                <path d="M599.284,353.813 C597.548,353.813 596.141,352.406 596.141,350.67 C596.141,348.934 597.548,347.526 599.284,347.526 L713.365,347.526 C715.1,347.526 716.507,348.934 716.507,350.67 C716.507,352.406 715.1,353.813 713.365,353.813 L599.284,353.813 Z" id="Fill-21" fill="#64826E"></path>
                <path d="M164.494,353.813 L105.1,353.813 C103.364,353.813 101.957,352.406 101.957,350.67 C101.957,348.934 103.364,347.526 105.1,347.526 L164.494,347.526 C166.231,347.526 167.637,348.934 167.637,350.67 C167.637,352.406 166.231,353.813 164.494,353.813" id="Fill-22" fill="#64826E"></path>
                <path d="M587.795,353.813 L582.378,353.813 C580.643,353.813 579.236,352.406 579.236,350.67 C579.236,348.934 580.643,347.526 582.378,347.526 L587.795,347.526 C589.531,347.526 590.939,348.934 590.939,350.67 C590.939,352.406 589.531,353.813 587.795,353.813" id="Fill-23" fill="#64826E"></path>
                <path d="M92.06,353.813 L90.644,353.813 C88.908,353.813 87.501,352.406 87.501,350.67 C87.501,348.934 88.908,347.526 90.644,347.526 L92.06,347.526 C93.797,347.526 95.203,348.934 95.203,350.67 C95.203,352.406 93.797,353.813 92.06,353.813" id="Fill-24" fill="#64826E"></path>
            </g>
        </g>
    </g>
</svg>