<?xml version="1.0" encoding="UTF-8"?>
<svg width="23px" height="22px" viewBox="0 0 23 22" version="1.1" xmlns="http://www.w3.org/2000/svg" xmlns:xlink="http://www.w3.org/1999/xlink">
    <!-- Generator: sketchtool 61.2 (101010) - https://sketch.com -->
    <title>C905042A-0A53-420C-ACE4-1B3B2BD9AFB3</title>
    <desc>Created with sketchtool.</desc>
    <g id="Page-1" stroke="none" stroke-width="1" fill="none" fill-rule="evenodd">
        <g id="Schemes" transform="translate(-1128.000000, -3152.000000)" fill="#808080" fill-rule="nonzero">
            <g id="Group-19" transform="translate(0.000000, 2957.000000)">
                <path d="M1144.56213,195 C1147.76147,195 1150.37859,197.543731 1150.4959,200.715584 L1150.5,200.937871 L1150.5,211.062129 C1150.5,214.262161 1147.95559,216.87862 1144.78437,216.995897 L1144.56213,217 L1134.43787,217 C1131.23853,217 1128.62141,214.456269 1128.5041,211.284416 L1128.5,211.062129 L1128.5,200.937871 C1128.5,197.737839 1131.04441,195.12138 1134.21563,195.004103 L1134.43787,195 L1144.56213,195 Z M1144.56213,196.419355 L1134.43787,196.419355 C1132.01738,196.419355 1130.03555,198.332029 1129.92428,200.725473 L1129.91935,200.937871 L1129.91935,211.062129 C1129.91935,213.482616 1131.83203,215.464446 1134.22547,215.575718 L1134.43787,215.580645 L1144.56213,215.580645 C1146.98262,215.580645 1148.96445,213.667971 1149.07572,211.274527 L1149.08065,211.062129 L1149.08065,200.937871 C1149.08065,198.446194 1147.05381,196.419355 1144.56213,196.419355 Z M1140.00387,198.430581 C1141.85471,198.430581 1143.23006,199.951419 1143.84535,201.252968 C1144.03514,201.658903 1144.13376,201.898398 1144.25199,202.743077 L1144.27968,202.949097 L1144.29671,203.082516 C1144.32155,203.270581 1144.35348,203.516129 1144.39252,203.641032 C1144.54581,203.670129 1144.8311,203.680774 1144.99787,203.687161 C1145.41578,203.702685 1145.75708,203.715493 1146.02795,203.869638 L1146.13974,203.944774 L1146.342,204.113677 C1146.39357,204.157204 1146.43883,204.20767 1146.47631,204.263603 L1146.52652,204.351419 L1146.63723,204.583484 C1146.65804,204.627011 1146.67413,204.67243 1146.68569,204.719321 L1146.69968,204.79071 L1146.73729,205.056839 L1146.7427,205.109 L1146.7427,205.109 L1146.74439,205.161161 L1146.72026,208.581097 C1146.70438,211.2112 1144.6011,213.446264 1142.07863,213.565157 L1141.86748,213.570129 L1137.10626,213.570129 C1134.5139,213.570129 1132.05898,211.190443 1131.93479,208.616475 L1131.92987,208.412903 L1131.92987,203.595613 C1131.92987,201.008784 1134.31832,198.5594 1136.90192,198.435492 L1137.10626,198.430581 L1140.00387,198.430581 Z M1140.00387,199.848516 L1137.10626,199.848516 C1135.27117,199.849203 1133.46931,201.586569 1133.35497,203.412116 L1133.34923,203.594903 L1133.34923,208.412194 C1133.34923,210.237667 1135.09189,212.030574 1136.92292,212.144345 L1137.10626,212.150065 L1141.86748,212.150065 C1143.65526,212.150065 1145.1844,210.618178 1145.29461,208.763425 L1145.3009,208.570452 L1145.32432,205.201613 L1145.31368,205.124258 C1145.21006,205.114323 1145.05677,205.108645 1144.94394,205.104387 C1144.38755,205.083097 1143.812,205.061806 1143.43729,204.721871 C1143.07259,204.388465 1142.97978,203.927444 1142.91158,203.431933 L1142.88942,203.265613 L1142.87239,203.133613 C1142.7631,202.286968 1142.7049,202.162065 1142.58781,201.913677 C1142.08961,200.857677 1141.11594,199.848516 1140.00387,199.848516 Z M1142.92987,207.348387 C1143.32232,207.348387 1143.63955,207.666323 1143.63955,208.058065 C1143.63955,208.449806 1143.32232,208.767742 1142.92987,208.767742 L1142.92987,208.767742 L1136.06942,208.767742 C1135.67697,208.767742 1135.35974,208.449806 1135.35974,208.058065 C1135.35974,207.666323 1135.67697,207.348387 1136.06942,207.348387 L1136.06942,207.348387 Z M1140.18626,203.232258 C1140.57871,203.232258 1140.89594,203.550194 1140.89594,203.941935 C1140.89594,204.333677 1140.57871,204.651613 1140.18626,204.651613 L1140.18626,204.651613 L1136.06942,204.651613 C1135.67697,204.651613 1135.35974,204.333677 1135.35974,203.941935 C1135.35974,203.550194 1135.67697,203.232258 1136.06942,203.232258 L1136.06942,203.232258 Z" id="Combined-Shape"></path>
            </g>
        </g>
    </g>
</svg>