<?xml version="1.0" encoding="UTF-8"?>
<svg width="23px" height="22px" viewBox="0 0 23 22" version="1.1" xmlns="http://www.w3.org/2000/svg" xmlns:xlink="http://www.w3.org/1999/xlink">
    <!-- Generator: sketchtool 61.2 (101010) - https://sketch.com -->
    <title>72E94C15-D5E8-4DB1-BCD0-761A061DC500</title>
    <desc>Created with sketchtool.</desc>
    <g id="Page-1" stroke="none" stroke-width="1" fill="none" fill-rule="evenodd">
        <g id="Schemes" transform="translate(-1086.000000, -3152.000000)" fill="#808080" fill-rule="nonzero">
            <g id="Group-19" transform="translate(0.000000, 2957.000000)">
                <path d="M1102.69839,195 C1105.95155,195 1108.5,197.548452 1108.5,200.800903 L1108.5,200.800903 L1108.5,211.199097 C1108.5,214.452258 1105.95155,217 1102.69839,217 L1102.69839,217 L1092.29948,217 C1089.04774,217 1086.5,214.452258 1086.5,211.199806 L1086.5,211.199806 L1086.5,200.800903 C1086.5,197.548452 1089.04774,195 1092.29948,195 L1092.29948,195 Z M1102.69839,196.419355 L1092.29948,196.419355 C1089.80213,196.419355 1087.91935,198.302839 1087.91935,200.800903 L1087.91935,200.800903 L1087.91935,211.199097 C1087.91935,213.697161 1089.80213,215.579935 1092.29948,215.579935 L1092.29948,215.579935 L1102.69839,215.579935 C1105.19716,215.579935 1107.08065,213.696452 1107.08065,211.199097 L1107.08065,211.199097 L1107.08065,200.800903 C1107.08065,198.302839 1105.19716,196.419355 1102.69839,196.419355 L1102.69839,196.419355 Z M1097.81368,199.500774 C1100.76097,199.500774 1102.6991,201.563806 1102.69981,203.780129 C1102.69981,206.708968 1101.01716,208.895484 1098.53755,208.895484 C1097.70368,208.895484 1096.92019,208.460452 1096.65194,207.965806 C1096.65194,207.965806 1096.20484,209.685355 1096.10903,210.017484 C1095.77477,211.19129 1094.79258,212.365806 1094.71594,212.460903 C1094.69535,212.487871 1094.66342,212.500645 1094.63219,212.500645 C1094.58535,212.500645 1094.53994,212.471548 1094.53284,212.418323 C1094.51155,212.26929 1094.26103,210.788903 1094.55626,209.581742 C1094.70458,208.974968 1095.54768,205.513161 1095.54768,205.513161 C1095.54768,205.513161 1095.30142,205.035548 1095.30142,204.331548 C1095.30142,203.224452 1095.96426,202.399097 1096.79032,202.399097 C1097.49148,202.399097 1097.83142,202.907935 1097.83142,203.519677 C1097.83142,204.201677 1097.38148,205.222194 1097.14942,206.168194 C1096.95568,206.960194 1097.5589,207.60671 1098.36723,207.60671 C1099.82845,207.60671 1100.81277,205.789226 1100.81277,203.636774 C1100.81277,202.000968 1099.67445,200.776065 1097.6029,200.776065 C1095.26381,200.776065 1093.80329,202.464387 1093.80329,204.352129 C1093.80329,205.001484 1094.00271,205.460645 1094.31355,205.815484 C1094.45619,205.97871 1094.47535,206.04329 1094.42426,206.230645 C1094.38594,206.369742 1094.30219,206.699742 1094.266,206.830323 C1094.2291,206.970839 1094.13187,207.044645 1094.01123,207.044645 C1093.96935,207.044645 1093.92465,207.035419 1093.87923,207.017677 C1092.80265,206.591161 1092.30019,205.44929 1092.30019,204.164774 C1092.30019,202.044258 1094.14819,199.500774 1097.81368,199.500774 Z" id="Combined-Shape"></path>
            </g>
        </g>
    </g>
</svg>