<?xml version="1.0" encoding="UTF-8"?>
<svg width="23px" height="22px" viewBox="0 0 23 22" version="1.1" xmlns="http://www.w3.org/2000/svg" xmlns:xlink="http://www.w3.org/1999/xlink">
    <!-- Generator: sketchtool 61.2 (101010) - https://sketch.com -->
    <title>5C70AB47-0BE6-49EF-A037-E188414B2CB9</title>
    <desc>Created with sketchtool.</desc>
    <g id="Page-1" stroke="none" stroke-width="1" fill="none" fill-rule="evenodd">
        <g id="Schemes" transform="translate(-1212.000000, -3152.000000)" fill="#808080" fill-rule="nonzero">
            <g id="Group-19" transform="translate(0.000000, 2957.000000)">
                <path d="M1228.69059,195 C1231.94801,195 1234.50072,197.552 1234.50072,200.810129 L1234.50072,200.810129 L1234.50072,211.189871 C1234.50072,214.448 1231.94872,217 1228.69059,217 L1228.69059,217 L1218.31084,217 C1215.05272,217 1212.50072,214.448 1212.50072,211.189871 L1212.50072,211.189871 L1212.50072,200.810129 C1212.50072,197.552 1215.05272,195 1218.31084,195 L1218.31084,195 Z M1228.69059,196.419355 L1218.31084,196.419355 C1215.84897,196.419355 1213.92007,198.348258 1213.92007,200.810129 L1213.92007,200.810129 L1213.92007,211.189871 C1213.92007,213.651742 1215.84897,215.580645 1218.31084,215.580645 L1218.31084,215.580645 L1228.69059,215.580645 C1231.15246,215.580645 1233.08136,213.652452 1233.08136,211.189871 L1233.08136,211.189871 L1233.08136,200.810129 C1233.08136,198.348258 1231.15317,196.419355 1228.69059,196.419355 L1228.69059,196.419355 Z M1225.99736,200.101161 C1226.79291,200.101161 1227.56433,200.382194 1228.16826,200.883226 C1228.25343,200.871161 1228.34143,200.859806 1228.43084,200.847742 C1228.86233,200.790968 1229.40026,200.72071 1229.64297,200.578065 C1229.88639,200.436129 1230.19155,200.450323 1230.41936,200.617097 C1230.64717,200.783161 1230.75575,201.069161 1230.69401,201.344516 C1230.61665,201.692968 1230.45839,202.321742 1230.26962,202.613419 C1229.79839,203.338 1229.51949,203.751032 1229.3733,203.963226 C1229.25904,207.903355 1226.18046,211.899548 1221.09349,211.899548 C1219.50949,211.899548 1217.96736,211.454581 1216.63317,210.612903 C1216.35355,210.436194 1216.23291,210.089871 1216.3422,209.777613 C1216.45149,209.466065 1216.76091,209.271613 1217.09162,209.307097 C1217.93755,209.400774 1218.8282,209.271613 1219.60104,208.920323 C1218.47123,208.113419 1216.82407,206.579806 1216.82407,204.492645 C1216.82407,202.082581 1217.22007,201.108194 1217.26549,201.004581 C1217.36413,200.778903 1217.57278,200.620645 1217.81691,200.586581 C1218.06246,200.554645 1218.30588,200.647613 1218.46272,200.837806 C1219.5173,202.110968 1221.00549,202.958323 1222.63065,203.232258 C1222.73497,201.487871 1224.20543,200.101161 1225.99736,200.101161 Z M1225.99736,201.520516 C1224.92007,201.520516 1224.04433,202.377806 1224.04433,203.431677 C1224.04433,203.538839 1224.05355,203.646 1224.0713,203.752452 C1224.10749,203.837613 1224.12736,203.930581 1224.12736,204.028516 C1224.12736,204.423097 1223.82362,204.726129 1223.41059,204.738194 C1223.3971,204.738903 1223.3822,204.738194 1223.36801,204.737484 C1221.50226,204.645226 1219.72949,203.927742 1218.33639,202.728387 C1218.28388,203.171226 1218.24413,203.753161 1218.24413,204.493355 C1218.24413,206.701871 1221.24394,208.279484 1221.27446,208.295097 C1221.49233,208.405097 1221.63781,208.619419 1221.66052,208.861419 C1221.68323,209.103419 1221.58033,209.341871 1221.3873,209.490194 C1220.90543,209.861355 1220.38097,210.154452 1219.82601,210.364516 C1220.24188,210.441161 1220.66626,210.480194 1221.0942,210.480194 C1225.82846,210.480194 1227.9582,206.535097 1227.9582,203.734 C1227.9582,203.584968 1228.00575,203.438774 1228.09304,203.318129 C1228.10226,203.305355 1228.29459,203.037806 1228.82755,202.225935 C1228.75588,202.235871 1228.68562,202.245097 1228.61607,202.254323 C1228.42091,202.279871 1228.23497,202.304 1228.07388,202.334516 C1227.83755,202.380645 1227.59272,202.301871 1227.42523,202.12729 C1227.05833,201.741935 1226.53813,201.520516 1225.99736,201.520516 Z" id="Combined-Shape"></path>
            </g>
        </g>
    </g>
</svg>