<?xml version="1.0" encoding="UTF-8"?>
<svg width="23px" height="22px" viewBox="0 0 23 22" version="1.1" xmlns="http://www.w3.org/2000/svg" xmlns:xlink="http://www.w3.org/1999/xlink">
    <!-- Generator: sketchtool 61.2 (101010) - https://sketch.com -->
    <title>33043A06-AD37-4E96-9460-263D56590BA2</title>
    <desc>Created with sketchtool.</desc>
    <g id="Page-1" stroke="none" stroke-width="1" fill="none" fill-rule="evenodd">
        <g id="Schemes" transform="translate(-1170.000000, -3152.000000)" fill="#808080" fill-rule="nonzero">
            <g id="Group-19" transform="translate(0.000000, 2957.000000)">
                <path d="M1186.74673,195 C1189.9013,195 1192.38715,197.412488 1192.49693,200.534253 L1192.50071,200.758419 L1192.50071,211.050817 C1192.50071,212.621295 1191.91067,214.103045 1190.84594,215.225449 C1189.82296,216.302706 1188.47381,216.924106 1187.01671,216.993484 L1186.74229,217 L1176.44989,217 C1174.88385,217 1173.39766,216.374471 1172.26195,215.238758 C1171.19305,214.169852 1170.57607,212.790491 1170.50718,211.326293 L1170.50071,211.050817 L1170.50071,200.758419 C1170.50071,199.20125 1171.13068,197.741682 1172.27526,196.654769 C1173.32751,195.652425 1174.6956,195.075089 1176.16019,195.006838 L1176.45433,195 L1186.74673,195 Z M1186.74229,196.419641 L1176.44989,196.419641 C1174.02357,196.419641 1172.03684,198.257511 1171.92529,200.558647 L1171.92035,200.762855 L1171.92035,211.055253 C1171.92035,213.438475 1173.87963,215.465846 1176.24464,215.57975 L1176.45433,215.584795 L1186.74673,215.584795 C1189.06961,215.584795 1190.97385,213.667382 1191.08077,211.268163 L1191.0855,211.055253 L1191.0855,200.758419 C1191.0855,198.327284 1189.17786,196.419641 1186.74229,196.419641 Z M1176.01513,201.863077 C1176.40553,201.863077 1176.72495,202.17806 1176.72495,202.572898 L1176.72495,202.572898 L1176.72495,211.494455 C1176.72495,211.884856 1176.40553,212.204275 1176.01513,212.204275 C1175.62473,212.204275 1175.30531,211.884856 1175.30531,211.494455 L1175.30531,211.494455 L1175.30531,202.572898 C1175.30531,202.182496 1175.62473,201.863077 1176.01513,201.863077 Z M1180.81529,201.858641 C1181.17316,201.858641 1181.47138,202.127042 1181.5186,202.472484 L1181.52511,202.568461 L1181.52511,202.892317 C1181.54729,202.874571 1181.57391,202.856826 1181.60053,202.83908 C1182.14177,202.466425 1182.98024,202.022787 1183.89857,202.022787 C1185.03872,202.022787 1185.80621,202.262351 1186.31196,202.781408 C1187.04396,203.526719 1187.03066,204.626941 1187.01735,205.904618 L1187.01513,206.203519 L1187.01513,206.203519 L1187.01291,206.512402 L1187.01291,211.490018 C1187.01291,211.880419 1186.69349,212.199839 1186.30309,212.199839 C1185.94522,212.199839 1185.647,211.931438 1185.59978,211.585996 L1185.59327,211.490018 L1185.59327,206.507965 C1185.59327,206.290583 1185.59327,206.082073 1185.59771,205.882436 C1185.61101,204.884251 1185.61989,204.099012 1185.30047,203.775156 C1185.08309,203.553337 1184.61283,203.442428 1183.89857,203.442428 C1183.07507,203.442428 1182.06441,204.167672 1181.61961,204.700638 L1181.53842,204.804396 L1181.52955,211.223835 C1181.52955,211.618673 1181.21013,211.933656 1180.81973,211.933656 C1180.45779,211.933656 1180.16296,211.665255 1180.11633,211.319813 L1180.10991,211.223835 L1180.11878,204.768905 L1180.1088,204.699587 L1180.1088,204.699587 L1180.10547,204.626941 L1180.10547,202.568461 C1180.10547,202.17806 1180.42489,201.858641 1180.81529,201.858641 Z M1176.01069,199.880016 C1176.45433,199.880016 1176.81811,200.239363 1176.81368,200.683001 L1176.81368,200.683001 C1176.80924,201.131075 1176.44989,201.485985 1176.01069,201.485985 C1175.56262,201.485985 1175.20327,201.126638 1175.20327,200.683001 C1175.20327,200.239363 1175.56705,199.880016 1176.01069,199.880016 Z" id="Combined-Shape"></path>
            </g>
        </g>
    </g>
</svg>