<?xml version="1.0" encoding="UTF-8"?>
<svg width="165px" height="22px" viewBox="0 0 165 22" version="1.1" xmlns="http://www.w3.org/2000/svg" xmlns:xlink="http://www.w3.org/1999/xlink">
    <!-- Generator: Sketch 61.2 (89653) - https://sketch.com -->
    <title>Combined Shape</title>
    <desc>Created with Sketch.</desc>
    <g id="Page-1" stroke="none" stroke-width="1" fill="none" fill-rule="evenodd">
        <g id="Home" transform="translate(-85.000000, -58.000000)" fill="#EC1230" fill-rule="nonzero">
            <path d="M122.795426,62.8588579 C124.14195,62.8588579 125.175872,63.1834614 125.897224,63.8326782 C126.618576,64.4818949 126.979246,65.4717352 126.979246,66.8022287 C126.979246,67.3953403 126.907112,68.0525622 126.762842,68.7739141 C126.330031,70.8097295 125.564608,72.3125235 124.46655,73.2823411 C123.368492,74.2521587 121.905772,74.7370602 120.078347,74.7370602 C118.795944,74.7370602 117.770037,74.4485237 117.000595,73.8714422 L115.774303,79.6903186 L112.528235,79.6903186 L116.038797,63.0993074 L118.852055,63.0993074 L118.803965,64.1572849 C119.397077,63.7244737 120.014224,63.3998702 120.655426,63.1834647 C121.296628,62.9670591 122.009954,62.8588579 122.795426,62.8588579 Z M246.490534,62.8588579 C247.147766,62.8588579 247.784951,62.9069473 248.402107,63.0031276 C249.019264,63.0993079 249.54424,63.2275463 249.977051,63.3878467 L249.399973,66.0568355 C249.031282,65.8644749 248.57844,65.7121918 248.041433,65.5999815 C247.504427,65.4877712 246.987466,65.4316669 246.490534,65.4316669 C245.673002,65.4316669 245.059862,65.4957861 244.651096,65.6240265 C244.24233,65.7522668 244.03795,65.9927138 244.03795,66.3453748 C244.03795,66.5697954 244.162181,66.7461232 244.410647,66.8743635 C244.659112,67.0026039 245.111954,67.1709168 245.769186,67.3793074 C245.977577,67.4273975 246.218024,67.4995316 246.490534,67.5957119 C247.516457,67.9483728 248.245813,68.3370955 248.678624,68.7618916 C249.111435,69.1866878 249.327838,69.7196787 249.327838,70.3608804 C249.327838,70.6654512 249.295778,70.9700175 249.231658,71.2745883 C248.991207,72.4447814 248.410127,73.3143982 247.4884,73.8834647 C246.566672,74.4525312 245.216161,74.7370602 243.436827,74.7370602 C242.603264,74.7370602 241.817804,74.6809559 241.080422,74.5687456 C240.34304,74.4565353 239.749937,74.3042522 239.301096,74.1118916 L239.878175,71.4188579 C240.359076,71.6432785 240.940156,71.8155989 241.621433,71.9358242 C242.30271,72.0560495 242.955925,72.1161613 243.581096,72.1161613 C244.414658,72.1161613 244.999746,72.0640644 245.336377,71.9598692 C245.673008,71.8556739 245.873381,71.643279 245.937501,71.3226782 C245.985591,71.0341374 245.881397,70.8097202 245.624916,70.6494197 C245.368436,70.4891193 244.863497,70.2807319 244.110085,70.0242512 C243.997875,69.9761611 243.873644,69.9320791 243.737388,69.892004 C243.601133,69.8519289 243.444842,69.799832 243.268512,69.7357119 C242.38686,69.415111 241.729638,69.0464256 241.296827,68.6296444 C240.864015,68.2128633 240.647613,67.6838799 240.647613,67.0426782 C240.647613,66.7701674 240.679673,66.5056757 240.743793,66.249195 C241.000274,65.111062 241.573339,64.2614825 242.463006,63.700431 C243.352674,63.1393795 244.69517,62.8588579 246.490534,62.8588579 Z M205.596536,58.7712175 C207.24763,58.7712175 208.730387,59.0276943 210.044851,59.5406557 L209.443727,62.3779591 C208.193384,61.8169076 206.790776,61.536386 205.235862,61.536386 C203.488587,61.536386 202.134069,61.9731981 201.172266,62.8468355 C200.210464,63.7204728 199.537212,65.0709836 199.152491,66.8984085 C198.992191,67.5877003 198.912042,68.2288924 198.912042,68.822004 C198.912042,69.8960169 199.240653,70.6934995 199.897884,71.2144759 C200.555116,71.7354523 201.613083,71.9959366 203.071817,71.9959366 C204.642761,71.9959366 206.149563,71.7234299 207.592266,71.1784085 L206.991143,74.0397568 C205.468289,74.504628 203.873323,74.7370602 202.206199,74.7370602 C200.154353,74.7370602 198.547366,74.2200991 197.385188,73.1861613 C196.22301,72.1522235 195.641929,70.7295786 195.641929,68.9181838 C195.641929,68.2930121 195.714063,67.6197604 195.858334,66.8984085 C196.996467,61.4802541 200.242502,58.7712175 205.596536,58.7712175 Z M107.348163,62.8588579 C109.063377,62.8588579 110.349769,63.2195285 111.207376,63.9408804 C112.064983,64.6622323 112.49378,65.7041695 112.49378,67.0667231 C112.49378,67.5476244 112.429661,68.1246973 112.301421,68.7979591 C111.88464,70.7696543 111.08315,72.252411 109.896927,73.2462737 C108.710703,74.2401363 107.019559,74.7370602 104.823443,74.7370602 C103.140289,74.7370602 101.869927,74.3803971 101.01232,73.6670602 C100.154713,72.9537233 99.7259153,71.9157936 99.7259153,70.55324 C99.7098853,70.0402786 99.7740045,69.4551908 99.9182749,68.7979591 C100.335056,66.8422938 101.140554,65.3635446 102.334792,64.3616669 C103.52903,63.3597893 105.200137,62.8588579 107.348163,62.8588579 Z M157.908228,62.8588579 C158.56546,62.8588579 159.126503,62.930992 159.591374,63.0752624 C160.056246,63.2195328 160.481035,63.4760096 160.865756,63.8447006 L161.010026,63.0993074 L164.256093,63.0993074 L161.851599,74.4966107 L159.062386,74.4966107 L159.086431,73.4386332 C158.493319,73.8714444 157.876172,74.1960479 157.23497,74.4124534 C156.593768,74.628859 155.880442,74.7370602 155.09497,74.7370602 C153.780506,74.7370602 152.738569,74.4365014 151.969127,73.8353748 C151.199685,73.2342482 150.81497,72.2924973 150.81497,71.0100939 C150.81497,70.5772827 150.879089,70.0242546 151.007329,69.3509928 C151.29587,68.0204992 151.776764,66.8663535 152.450026,65.8885209 C153.123288,64.9106882 153.928785,64.161295 154.866543,63.6403186 C155.8043,63.1193422 156.818185,62.8588579 157.908228,62.8588579 Z M133.626061,63.0993074 L132.135274,70.1685209 C132.071154,70.4410316 132.039094,70.7135382 132.039094,70.9860489 C132.039094,71.4669502 132.183362,71.8155984 132.471903,72.032004 C132.760444,72.2484096 133.225308,72.3566107 133.86651,72.3566107 C134.411531,72.3566107 134.944522,72.2484096 135.465499,72.032004 C135.986475,71.8155984 136.463362,71.5310694 136.896173,71.1784085 L138.603364,63.0993074 L141.849431,63.0993074 L139.444937,74.4966107 L136.439319,74.4966107 L136.535499,73.4145883 C135.237065,74.2962406 133.802398,74.7370602 132.231454,74.7370602 C131.125381,74.7370602 130.263779,74.4645535 129.646622,73.9195321 C129.029466,73.3745106 128.720892,72.5890503 128.720892,71.5631276 C128.720892,71.1623765 128.768981,70.721557 128.865162,70.2406557 L130.379993,63.0993074 L133.626061,63.0993074 Z M237.391136,59.6849253 L236.669788,63.0993074 L239.555181,63.0993074 L238.833833,65.5999815 L236.140799,65.5999815 L235.058776,70.6734647 C235.010686,70.9299454 234.986642,71.1543626 234.986642,71.3467231 C234.986642,71.699384 235.102858,71.947846 235.335293,72.0921164 C235.567729,72.2363867 235.956452,72.3085209 236.501473,72.3085209 C236.934284,72.3085209 237.415178,72.2283718 237.94417,72.0680714 L237.463271,74.3042512 C236.693829,74.592792 235.81219,74.7370602 234.818327,74.7370602 C233.776374,74.7370602 232.986906,74.4966131 232.4499,74.0157119 C231.912894,73.5348106 231.644394,72.8615589 231.644394,71.9959366 C231.644394,71.6913658 231.684469,71.3226803 231.764619,70.8898692 L232.894731,65.5999815 L231.28372,65.5999815 L231.812709,63.0993074 L233.42372,63.0993074 L233.952709,60.6467231 L237.391136,59.6849253 Z M216.114586,58.2903186 L214.888294,64.0611051 C215.465376,63.6924141 216.106568,63.3998702 216.81189,63.1834647 C217.517211,62.9670591 218.254582,62.8588579 219.024024,62.8588579 C220.194218,62.8588579 221.079864,63.1113273 221.680991,63.6162737 C222.282117,64.12122 222.582676,64.8706133 222.582676,65.8644759 C222.582676,66.265227 222.534587,66.7060465 222.438406,67.1869478 L220.89953,74.4966107 L217.653463,74.4966107 L219.168294,67.3552624 C219.232414,67.0506916 219.264474,66.7621552 219.264474,66.4896444 C219.264474,66.0408033 219.120206,65.7202072 218.831665,65.5278467 C218.543124,65.3354862 218.06223,65.2393074 217.388968,65.2393074 C216.892037,65.2393074 216.371068,65.3475085 215.826047,65.5639141 C215.281025,65.7803197 214.800131,66.0648487 214.38335,66.4175096 L212.676159,74.4966107 L209.430092,74.4966107 L212.868519,58.2903186 L216.114586,58.2903186 Z M181.482683,62.8588579 C182.508606,62.8588579 183.286051,63.0912901 183.815042,63.5561613 C184.344034,64.0210325 184.608526,64.7263438 184.608526,65.6721164 C184.608526,66.0728674 184.560436,66.513687 184.464256,66.9945883 L182.87729,74.4966107 L179.679312,74.4966107 L181.194144,67.3552624 C181.258264,67.0506916 181.290323,66.7621552 181.290323,66.4896444 C181.290323,66.0568333 181.162085,65.7402447 180.905604,65.5398692 C180.649124,65.3394936 180.216319,65.2393074 179.607177,65.2393074 C179.158336,65.2393074 178.701487,65.3314787 178.236616,65.5158242 C177.771744,65.7001697 177.354969,65.9526391 176.986278,66.27324 C177.002308,66.5457507 176.970249,66.8743616 176.890099,67.2590827 L175.375267,74.4966107 L172.345604,74.4966107 L173.860436,67.3552624 C173.924556,67.0506916 173.956616,66.7541403 173.956616,66.4655995 C173.956616,66.0488184 173.848414,65.7402447 173.632009,65.5398692 C173.415603,65.3394936 173.050925,65.2393074 172.537964,65.2393074 C171.720432,65.2393074 170.798718,65.6480673 169.772795,66.4655995 L168.089649,74.4966107 L164.891672,74.4966107 L167.296166,63.0993074 L170.301784,63.0993074 L170.181559,64.2053748 C171.576173,63.3076924 172.970766,62.8588579 174.36538,62.8588579 C175.134822,62.8588579 175.723917,62.975074 176.132683,63.2075096 C176.541449,63.4399452 176.817963,63.7885934 176.962233,64.2534647 C178.356847,63.3237222 179.863649,62.8588579 181.482683,62.8588579 Z M229.734434,63.0993074 L227.32994,74.4966107 L224.083872,74.4966107 L225.983423,65.5038018 L224.276232,65.5038018 L225.069715,63.0993074 L229.734434,63.0993074 Z M101.206292,59.0116669 L94.2813483,65.2873973 L98.2247191,74.4966107 L94.7622472,74.4966107 L91.828764,67.3552624 L89.28,69.5914422 L88.2460674,74.4966107 L85,74.4966107 L86.061,69.4716669 L90.999,64.7916669 L97.4793258,59.0116669 L101.206292,59.0116669 Z M152.247257,62.8588579 L151.742313,65.3114422 C151.036991,65.4076225 150.267561,65.5719279 149.433998,65.8043635 C148.600436,66.0367992 147.927184,66.2812537 147.414223,66.5377343 L145.731077,74.4966107 L142.48501,74.4966107 L144.889504,63.0993074 L147.895122,63.0993074 L147.798942,64.2775096 C148.392054,63.9408787 149.093358,63.6443274 149.902875,63.3878467 C150.712392,63.131366 151.493845,62.9550382 152.247257,62.8588579 Z M121.376774,65.2393074 C120.382912,65.2393074 119.461198,65.5839481 118.611606,66.27324 L117.505539,71.4909928 C117.810109,71.7795335 118.134713,71.9959359 118.479359,72.1402062 C118.824005,72.2844766 119.252802,72.3566107 119.765763,72.3566107 C120.743596,72.3566107 121.541078,72.0640668 122.158235,71.4789703 C122.775392,70.8938737 123.220219,69.9761676 123.49273,68.7258242 C123.62097,68.0846225 123.685089,67.5636539 123.685089,67.1629029 C123.685089,66.4896411 123.504754,66.0007321 123.144078,65.6961613 C122.783402,65.3915905 122.194307,65.2393074 121.376774,65.2393074 Z M158.244857,65.2393074 C157.234965,65.2393074 156.397408,65.5879556 155.732161,66.2852624 C155.066914,66.9825693 154.590027,68.0044692 154.301487,69.3509928 C154.189276,69.815864 154.133172,70.2486687 154.133172,70.6494197 C154.133172,71.2745914 154.317515,71.715411 154.686206,71.9718916 C155.054897,72.2283723 155.656014,72.3566107 156.489577,72.3566107 C157.018568,72.3566107 157.50347,72.2764617 157.944296,72.1161613 C158.385122,71.9558609 158.829949,71.6913691 159.27879,71.3226782 L160.336768,66.249195 C159.839836,65.5759332 159.14254,65.2393074 158.244857,65.2393074 Z M106.771084,65.6240265 C105.729131,65.6240265 104.935656,65.8644735 104.390634,66.3453748 C103.845613,66.8262761 103.452883,67.643796 103.212432,68.7979591 C103.084192,69.3910706 103.020073,69.8559349 103.020073,70.1925658 C103.020073,70.8337675 103.208423,71.2906169 103.585129,71.5631276 C103.961835,71.8356383 104.574975,71.9718916 105.424567,71.9718916 C106.48255,71.9718916 107.280032,71.7314446 107.817039,71.2505433 C108.354045,70.769642 108.750783,69.9521221 109.007264,68.7979591 C109.119474,68.3010277 109.175578,67.8441784 109.175578,67.4273973 C109.175578,66.7701655 108.991236,66.3053012 108.622545,66.0327905 C108.253854,65.7602798 107.636706,65.6240265 106.771084,65.6240265 Z M91.5161798,59.0116669 L90.444,64.0566669 L86.394,67.8946669 L88.2701124,59.0116669 L91.5161798,59.0116669 Z M230.744322,58.4586332 L230.215333,61.0073973 L226.680726,61.0073973 L227.209715,58.4586332 L230.744322,58.4586332 Z" id="Combined-Shape"></path>
        </g>
    </g>
</svg>